<svg xmlns="http://www.w3.org/2000/svg" viewBox="0 0 1211.95 804.08"><defs><style>.cls-1{fill:#7da396;}.cls-2{fill:#728579;}.cls-3{fill:#bb7b69;}.cls-4{fill:#f2c2aa;}.cls-5{fill:#161616;}.cls-6{fill:#fefefe;}.cls-7{fill:#587364;}.cls-8{fill:#f1b394;}</style></defs><g id="Layer_2" data-name="Layer 2"><g id="Layer_1-2" data-name="Layer 1"><path class="cls-1" d="M750,181.89a3.72,3.72,0,0,0,2.77-.77C775.93,165,802.09,160.43,829.7,161c25.44.55,50.38,5,75.33,9.27,30.76,5.31,61.69,10.11,91.73,18.76,32,9.24,63.78,19.94,91.62,38.94,16.87,11.52,32.14,25.29,42.62,43.26,15.12,25.9,19.68,54.14,16.94,83.72-2.07,22.35-7.82,43.64-18.84,63.33-8.68,15.5-19.15,29.5-33.55,40.26-10,7.52-21.62,10.86-33.7,13.16-35.09,6.68-70.46,3.76-105.76,3.17-16.79-.28-33.7.18-50.32-1.75-19.75-2.31-39.63-1.67-59.32-4.19a16.83,16.83,0,0,0-2.46,0l-18.81-1.08c-2.1-.36-4.18-.84-6.3-1-21.09-2-42-4.86-62.63-10.05-26.38-6.65-43.73-22.86-52.93-48.2,5.15-1.82,10.91-1.29,15.8-4.11l1.26.07c-.85,1.69-.16,3.17.58,4.68,7.15,14.75,18.31,25,33.9,30.31a158.94,158.94,0,0,0,19.55,5.06,428.9,428.9,0,0,0,42.8,6.13l21,1.75c25.92,2.19,51.9,3.24,77.87,4.4,17.92.79,35.85,1.61,53.79,1.8,27.49.3,55,1.06,82.44-1.72,17.52-1.78,33.07-7.58,44.71-21.25,8-9.38,15.61-19.16,20.85-30.43,11.59-24.95,16.64-51,14.16-78.64-2-22.75-10.13-42.87-24.49-60.27-13.71-16.62-31.8-28-50.64-37.82-36.71-19.08-77.12-26.76-117-35.51-32.08-7-64.55-12.71-97.35-15.51-21-1.79-41.87-1.21-61.82,6.61-7.86,3.08-15.83,6.37-21.07,13.66-.29,0-.57,0-.86,0-.29-5.62-5.18-8.93-6.94-13.81Z"/><path class="cls-2" d="M750,181.89l1.93,2.05a7.22,7.22,0,0,0-3.64,1c-3.93,1.68-5.67,5.77-9.15,7.86-.3,0-.59,0-.88,0-11-16.7-25.55-30.08-40.64-42.76-20-16.84-43.81-27.72-67.26-38.75-17-8-35.2-12.86-53.19-18.23-22.74-6.79-45.77-9.48-69.27-5.69-28.65,4.61-55.66,13.62-80.59,29-20.11,12.42-39.49,25.41-55.22,43.4-11.35,13-21.41,26.55-28.11,42.63-10.85,26.06-8.89,50.7,6.7,74.21,1.4,2.12,2.71,4.61,5.54,5.39,0,2.58,2,4.08,3.5,5.57,6,5.8,11.88,11.84,18.58,16.94a3.78,3.78,0,0,1,.82.12l-.09-.05c5.64,4.4,11,9.21,17,13.13a265.65,265.65,0,0,0,42.65,22.61c17.93,7.56,35.28,16.59,54.2,21.67,6.85,2.25,13.47,5.33,20.79,5.91,1.34,1.34,3.08,1.78,4.83,2.26,9,2.42,18,5.1,27,7.25,8.73,2.07,17.34,4.85,26.4,5.33,7.75,2.59,15.82,3.64,23.87,4.82,23.3,3.74,46.56,7.79,70.28,7.89a131.08,131.08,0,0,0,32.54-3.79l1,.08c0,1.79-.1,3.6,0,5.39.3,3.88,3.4,7.06,2.88,11.17-1.11.27-2.21.65-3.33.81-24.89,3.4-49.77,2.39-74.65-.2-16.31-1.7-32.41-4.8-48.6-7.29-8.53-1.74-16.91-4.21-25.62-5.09-10.86-4.72-22.48-7-33.77-10.28-6.61-1.74-13-4.39-19.74-5.48a9.69,9.69,0,0,0-1.66-1c-24.85-8.41-49.54-17-73-29.25-25.75-13.43-51-27.21-71.08-48.8a8.38,8.38,0,0,0-4.65-2.55c.06-1.94-1-3.2-2.2-4.67-4.39-5.52-9.25-10.73-12.06-17.36-13-24-14.12-48.71-5.5-74.36,5.66-16.82,15.15-31.22,25.82-45.17,12.77-16.69,29-29.33,45.56-41.85,26.16-19.77,55.79-31.53,87-40.46,26-7.43,52.3-9.73,78.2-2.85,36.47,9.67,72.89,20.38,105.86,39.43,19.58,11.31,39.05,23.28,55,39.68C733.39,161.08,742.76,170.61,750,181.89Z"/><path class="cls-3" d="M332.21,277.16c2.81,6.63,7.67,11.84,12.06,17.36,1.16,1.47,2.26,2.73,2.2,4.67q-38.22-4.4-76.43-8.81c-23.54-2.75-47.12-5-70.76-6.42-13.62-.83-27.28-1.45-40.94-.18-12.08,1.13-23.2,4.54-32.66,12.47A120.51,120.51,0,0,0,106.57,316C88.62,339.75,79.83,366.53,78.09,396c-1.91,32.56,8.5,60.54,30.88,84,14.79,15.53,33.09,26.52,51.73,36.49,33.83,18.08,71.05,27.19,107.47,38.19,20.12,6.08,40.71,10.62,61.22,15.32,23.13,5.3,46.47,9.34,70.39,6.45a2.31,2.31,0,0,0,.93.19c1.26,6.2,1.22,12.6,3,18.7a1.42,1.42,0,0,0,0,.84,182,182,0,0,1-59.9-3c-23.05-5-45.87-11-68.72-16.92-23.89-6.15-48-11.71-71-20.61-27.08-10.46-54.55-20.49-78.57-37.33-15.76-11-30.87-23.18-42.23-39C69.28,460,60.9,438.29,59.44,414c-1.83-30.42,3.64-59.25,17.35-86.51a137.94,137.94,0,0,1,44.55-51.79c10.47-7.38,21.86-10.37,34-11.55,26-2.54,51.94.2,77.83,2.55,17.85,1.62,35.75,3,53.5,5.43,12.66,1.71,25.23,4.07,38,5.31C327.12,277.73,329.75,279,332.21,277.16Z"/><path class="cls-4" d="M403.76,596.23a1.42,1.42,0,0,1,0-.84c6-.32,11.91-.84,17.16-4.18a2.39,2.39,0,0,1,.53.06c.33,2.1.06,4.24.78,6.34,2.89,8.36,5.69,16.71,9.37,24.81a133,133,0,0,0,42.21,52.33c15.62,11.61,33.8,17.3,53.42,17.6,12,.19,23.95.19,35.9-1.86a275.37,275.37,0,0,0,47.51-12.55c13-4.73,25.41-10.87,38-16.57,15.36-7,30.62-14.15,45.37-22.35,12.86-7.13,25.5-14.67,38.55-21.43,22.23-11.51,43.36-24.62,62.17-41.21,28.36-25,39.08-56.22,32.81-93.48-.84-5-2.82-9.84-2.35-15L844,468.94c-.45,6,1.56,11.69,2.29,17.53,3.05,24.39-.71,47.7-11.65,69.47-6.34,12.64-16.29,22.82-26.47,32.81-17.6,17.27-39,28.47-59.81,40.93C732.87,639,717,647.35,701.07,655.81c-8.85,4.72-18.13,8.66-26.8,13.67-20.42,11.78-42.31,20.2-64.43,27.8a237.25,237.25,0,0,1-52.13,12c-20.73,2.19-41.22,2.05-61.43-3.79A108,108,0,0,1,451,679.6a164.09,164.09,0,0,1-44.54-72.44C405.35,603.61,403.65,600.1,403.76,596.23Z"/><path class="cls-5" d="M1119.89,202.63c3.19,2.29,3.19,4.67,2.51,7.74-1.47,6.62,3.37,15.09,10.16,18.7,5.51,2.94,10.82,1.71,17-4.14-7-1.31-12.61-4.41-16.26-10.58a21.44,21.44,0,0,1-2.48-15.24c2-11,12.26-18.51,22.9-17.1,12.27,1.64,18.77,10.57,18.39,25.53,2,.18,2.86-1.9,4.56-2.29,1.7.54,2.36,2.06,3.42,3.9q-14.12,10.62-28.24,21.27a62.53,62.53,0,0,1-5.69,4.39c-5.77,3.36-12.54,2.09-18-2.39s-9.28-9.7-10.92-16.52A16.24,16.24,0,0,1,1119.89,202.63Zm15.71,1.06c0,9,7.47,16.83,15.94,16.78s16.64-7.59,16.21-15.95c-.46-8.75-6-17.33-16.56-17.15A15.94,15.94,0,0,0,1135.6,203.69Z"/><path class="cls-5" d="M655.15,734.83c-.81-2-1.41-3.54-2-5.09,1-1.54,2.74-1.65,4.57-2.45,6,13.07,12.63,25.92,16.64,39.77,2.9,10-4.27,19.61-16.47,23.05-7.23,2-14,1.38-19.9-4.31,2.26-2.24,4.32-2.66,7.34-1.27,7.62,3.51,18,.1,22.57-6.95,3.65-5.57,1.47-10.63-1.28-16.35-2.6,6.1-6.24,10.7-12,13.13a20.51,20.51,0,0,1-17.66-.28c-9.62-4.68-14.15-16.45-10.43-26.93C630.48,735.83,640.26,731.51,655.15,734.83ZM662.9,755c-.06-9.61-7.25-17.25-16.08-17.09A16.7,16.7,0,0,0,630.65,755c.05,8.94,6.87,16.19,15.23,16.22C655.16,771.25,663,763.8,662.9,755Z"/><path class="cls-5" d="M298.36,226.29l-35.56-2.22c-1.13,8.06,2.65,14.81,9.37,17.15,7.85,2.73,15.68-.53,20.39-8.5l3.86,3.32c-5.79,10.1-17,13.79-27.66,9.22-9.65-4.16-14.68-16.71-11.09-27.66s13.77-16.5,25.43-13.94C292.88,205.81,299.56,215.43,298.36,226.29Zm-35.07-6.91,29.62,1.9c-2-8.34-7-12.71-14.4-13.13C271.39,207.74,266,211.58,263.29,219.38Z"/><path class="cls-5" d="M72.72,229.68c.48-2.05-2-2.94-2-5.05l3.86-2.81,23,34.55-3.54,2.71c-2.17-.7-2.24-3.33-4.15-4.16-3.64,11.92-13.83,20.35-22.37,18.64-13.6-2.73-21-11.73-20-24.42C48.5,237.42,58.22,229.9,72.72,229.68Zm12.6,22.24a17,17,0,0,0-16.68-16.67,16.14,16.14,0,0,0-15.92,16.11A16.7,16.7,0,0,0,69.4,268,16,16,0,0,0,85.32,251.92Z"/><path class="cls-5" d="M1174,293.51c-.63-2-1.72-3.15-1.44-5,1.52-.7,3.12-1.42,5.6-2.54-8.54-3.15-12.79-9.06-14.23-17.3a20.65,20.65,0,0,1,2.76-14.18c5.06-8.95,16.91-13,26.57-9.17,11.38,4.5,15,14,11,29.47,2.86,0,2.86,0,5.53-2l2.16,5.75Zm10.51-10.73a17.2,17.2,0,0,0,17.27-17.17c.15-8.85-7.23-16.24-16.35-16.37-8.64-.12-16.85,7.44-16.6,16.18C1169.07,275.25,1174.31,282.28,1184.47,282.78Z"/><path class="cls-5" d="M595.4,30H560.16c-.33,7.94,2.89,13.39,9.2,15.88,7.11,2.8,13.87.18,20.79-8.11a6.59,6.59,0,0,1,4,2.16c-1.08,3.1-3.33,5.41-5.83,7.45-6.95,5.68-19.34,5.74-26.2.2-7.85-6.34-10.35-19.28-5.46-28.31A20.82,20.82,0,0,1,581.43,9.06,19.91,19.91,0,0,1,595.4,30Zm-5.81-5c-1.7-7.44-7.2-11.79-14.79-11.76-7,0-12.27,4.31-14,11.76Z"/><path class="cls-5" d="M474.53,61c-1.93.54-3.26,1.25-5,.82-.32-1.49-.65-3-1.19-5.6-4.49,5.6-9.1,9.71-15.88,10.4a20,20,0,0,1-17.08-5.93c-7.82-7.94-8.44-18.62-2.38-28.51,5.7-9.3,16.42-11,29.11-5V22.08c1.26-1,2.72-1.09,4.72-1.22C469.34,34.1,471.9,47.38,474.53,61Zm-8.3-14.87c-.13-9.25-6.37-17.81-15.83-17.78-9.89,0-15.66,8.05-16,17S442,62.17,450.59,62A15.87,15.87,0,0,0,466.23,46.15Z"/><path class="cls-5" d="M408.25,717.71c2.6.31,5.22.21,7.76,1.18,10.27,3.91,13.86,14.16,7.5,23.1a191.81,191.81,0,0,1-18.15,22.07c-1.89-.33-3-1.57-4-3.32q7.69-9.19,15.4-18.4c5.62-6.76,6.14-11.55,1.83-16.15-5-5.32-13.11-5.84-19.19-.9-6.28,5.09-10.92,11.81-16.67,17.56-1.81-.13-2.45-1.85-4.55-3,13.45-14,25.14-28.91,37.72-42.88,1.83.62,2.76,1.77,4,3.22-4.12,5.49-9.42,10.17-12.95,16.21-.55.3-1.12.58-1,1.61Z"/><path class="cls-5" d="M485.4,773c5-2.85,10.16-5.46,14.94-8.64,3.61-2.4,7.07-3,11.91-.92L487.46,778l18.44,26c-4.14,0-6.94-.85-9.44-4.12-4.63-6-7.95-13.06-14.08-18.89-1.2,6.37-2.27,12.09-3.34,17.76-1.9.56-3.39,0-5.27-1,3.49-18.79,7-37.66,10.48-56.42,1.92-1,3.36,0,5.28.68Q486.85,757,484.15,772l.19,1.56Z"/><path class="cls-5" d="M1123,156.83A21.6,21.6,0,0,1,1101.91,179c-11.64.18-21.39-9.05-21.61-20.46-.26-13.09,8.63-23,20.88-23.34C1113.72,134.87,1122.76,143.82,1123,156.83Zm-20.52-16.41c-9.39-.15-16.76,7.42-17,17.47-.19,8.4,7,15.81,15.52,16.06s16.53-7.67,16.65-16.78S1111.14,140.56,1102.5,140.42Z"/><path class="cls-5" d="M575.8,800.82l-5,1.13-8.44-40.41c1.46-1.43,3.13-1.16,4.65-1.34,1.63,1.35.49,3.61,2.14,5.31,1.15-1.45,2.22-2.94,3.44-4.29,9.07-10,23.25-7.16,27,5.77,2.42,8.33,3.91,16.93,5.77,25.41a6.19,6.19,0,0,1-.11,1.83,6.45,6.45,0,0,1-4.62.95c-2-8.85-3.64-17.85-6.13-26.61s-11.93-11-18.6-4.56a14.4,14.4,0,0,0-4.46,13.46C572.8,785.06,574.27,792.62,575.8,800.82Z"/><path class="cls-5" d="M38.72,324.26l-2.29,4.79c-12.25-6.34-25-11.22-36.43-19.29l1.79-3.85c2.31-.71,3.53,1.85,6,1.39C7,304,5.87,300.81,6.12,297.37c.75-10.32,9.58-16.7,19.44-13.7,9.31,2.83,17.4,8.31,26.26,12.1a7.77,7.77,0,0,1-2.31,4.77c-7.07-3.4-14.1-6.9-21.24-10.18-7.54-3.47-12.51-2.58-15.7,2.52-3.54,5.66-2.25,13.06,2.85,17.95a46.08,46.08,0,0,0,13.52,8.57C32.08,320.81,35.11,322.45,38.72,324.26Z"/><path class="cls-5" d="M154.47,201.06l5.34-.33c.56,6.65,1.09,13.15,1.68,19.64a57.74,57.74,0,0,0,.9,6.83c1.56,7.28,5.71,10.53,12.73,10.13,6.58-.37,11-4.64,11.3-11.84.2-5.39-.51-10.81-.83-16.22-.2-3.41-.44-6.82-.68-10.48l5.37-.35c0,11.51,3.92,22.74,0,34.14-2.24,6.52-7.91,9.93-16.85,9.92-7.63,0-12.66-3.38-14.88-9.67a40.62,40.62,0,0,1-2.3-10.55C155.71,215.41,155.1,208.55,154.47,201.06Z"/><path class="cls-5" d="M1073.53,115.41l-35.92,33.69c-1.68,1.57-3.9,2.88-4.85,4.82-2.22,4.53-4.7,3.38-8.1.89,3.07-4.49,7.34-7.53,11.1-11a8.63,8.63,0,0,0,3.07-7.19c-.18-12.47-.07-24.94-.07-37.57,3.78.37,5,2.17,5,5.77-.12,8.72.13,17.45.29,26.17,0,1.21-.54,2.58,1,4.1l24.47-23.19C1071,111.71,1072.43,113.13,1073.53,115.41Z"/><path class="cls-5" d="M514.05,44.3c2.88-9.75,5.66-18.51,8-27.38.91-3.44,2.42-5.12,6.72-4.59l-12.83,44c-9.44-12.89-16-26.36-24.43-38.87,3.58-1.54,5.72-.91,7.59,2.34C503.72,27.8,508.73,35.63,514.05,44.3Z"/><path class="cls-5" d="M115.88,212.67l-6.32,1.26a3.88,3.88,0,0,1-1.29-4.13l6.07-1.81c0-5.42-3-10.23-2.49-15.73l4.55-.9c1.24,5.2,2.44,10.24,3.55,14.87,3.12,1.52,7.86-4.47,9.07,2.7-2.2,1.84-5.18,1.15-7.71,2.86,2.61,11.76,5.24,23.65,7.84,35.36-1.58,1.34-3.14,1-5.06,1.52C121.36,236.71,118.64,224.79,115.88,212.67Z"/><path class="cls-5" d="M380.8,98.57,377,102,353.48,75.05l-5,4.09c-3.91-3.27-3.91-3.27,1.76-8.63Q345.67,65,341,59.44a6.77,6.77,0,0,1,3.89-3.33l9.54,10.68,6-4.71c1.58.5,2.3,1.65,2.89,3.17l-5.5,5.17C364.35,80.7,373.21,88.83,380.8,98.57Z"/><path class="cls-5" d="M222.13,241.36a7.91,7.91,0,0,1-5.4-.27q1.17-20.44,2.37-41.15h4.51c1.86,1.15.17,2.93,1.25,4.46,2.3-1.22,4-3.5,6.63-4.26a9.45,9.45,0,0,1,7.88,1c-.94,2.39-1.45,4.45-5.22,3.8-4.15-.72-7.84,2.91-9.37,8.46-1.82,6.55-1.78,13.33-2.14,20.06C222.51,236,222.31,238.63,222.13,241.36Z"/><path class="cls-5" d="M383.68,45.93l4.11-1.83c1.82.59,1.54,2.64,3.07,3.45,2-5,3.84-10.28,10.95-10,.22,2.63.49,4.54-2.75,5.82-4.61,1.83-5.89,7.57-3.24,14.29,3,7.73,6.62,15.26,9.95,22.84-.77,1.92-2.75,1.64-4.28,3.16Z"/><path class="cls-5" d="M632.8,1.12Q627.17,28.77,621.63,56a6.6,6.6,0,0,1-5.18-1.08L627.61.22C629.46-.32,630.82.19,632.8,1.12Z"/><path class="cls-5" d="M533.16,762.53a7.28,7.28,0,0,1,4.94.3v40.91c-1,.69-2.63.14-4.94.13Z"/><path class="cls-5" d="M453.29,744.61l4.93,2.32c-4.76,12.93-11.46,24.86-17,37.2-2.1.48-3.34-.6-5-1.77C441.67,769.85,448.37,757.91,453.29,744.61Z"/><path class="cls-5" d="M534,744.51c3.4.08,5.23,1.62,5,4.21s-1,5.36-4.44,5.3c-3.2-.06-3.85-2.85-4.1-5.11A3.85,3.85,0,0,1,534,744.51Z"/><path class="cls-5" d="M465.66,734.85c-.36,2.69-1.81,4.2-4.6,4.07a3.79,3.79,0,0,1-4-4.12c0-2.75,1.58-4.31,4.31-4.33S465.51,732.15,465.66,734.85Z"/><path class="cls-6" d="M759.72,197.78c5.24-7.29,13.21-10.58,21.07-13.66,20-7.82,40.87-8.4,61.82-6.61,32.8,2.8,65.27,8.47,97.35,15.51,39.85,8.75,80.26,16.43,117,35.51,18.84,9.79,36.93,21.2,50.64,37.82,14.36,17.4,22.44,37.52,24.49,60.27,2.48,27.63-2.57,53.69-14.16,78.64-5.24,11.27-12.86,21.05-20.85,30.43-11.64,13.67-27.19,19.47-44.71,21.25-27.45,2.78-54.95,2-82.44,1.72-17.94-.19-35.87-1-53.79-1.8-26-1.16-52-2.21-77.87-4.4-2.93-7.48-5.33-15.21-8.87-22.39a320.61,320.61,0,0,0-41.41-63c-1.8-2.16-2.63-5.5-6.06-6.12,2.19-5.67,4.62-11.26,6.51-17,6.93-21.07,6.2-42.44,2.17-63.91A255.51,255.51,0,0,0,759.72,197.78ZM998.23,329.41l-.08-.12a1.64,1.64,0,0,0,1.07,2.08l-.07-.07a2.88,2.88,0,0,0,2,2.05l-.06-.06a1.59,1.59,0,0,0,2.08,1.08l-.12-.1c0,1.13.88,1,1.61,1.06l-.11-.07c1.78,1.67,4.13,1.18,6.23,1.62,1.39.4,2.43-.43,3.54-1,1.23-.9,3.5-.29,3.78-2.58l-.14.09c.86.1,1.64.14,1.12-1.12l-.13.14c2.19.14,2.4-1.7,3.07-3.08l-.09.07c3.22-5.23,2.57-10.21-1-15l.09.08a3,3,0,0,0-2.06-3.05l.08.08-1.07-1.07.08.09c-4.5-3.18-9.15-4.23-14.11-1q-6.75,1.39-5.81,8.22c-3.62,2.92-2.2,6.32-.94,9.71l-.07-.12C997.14,328.2,996.94,329.18,998.23,329.41Zm-49.67,7c4.38,9.9,8.72,19.82,13.15,29.69,5.17,11.53,10.14,23.17,15.71,34.51,5.24,10.67,20.32,14.41,30,7.71-2.44-2.16-5-.66-7.28-.28-11.45,1.86-19-2.33-22.77-13.13-2.17-6.22-4.86-12.19-7.57-18.17-5.62-12.38-11.16-24.8-16.94-37.66,2.37.12,4.14.26,5.92.31A24.79,24.79,0,0,0,978.59,331c1-1.09,2.7-2.41-.2-3.87-5,5.78-11.12,9.5-19,9.46-3.64,0-7.28-.1-10.92-.15,6.78-15.06,14.05-19.59,28.53-17.75,2.29.28,4.55.73,6.83,1,1.11.14,2.41.41,2.58-1.68-2.83-2.07-6.4-1.67-9.65-2.17-13.47-2.07-21.32,2.05-28.19,13.86-7.75,13.34-14.14,27.38-21.5,40.92-5.8,10.66-10.76,21.72-15.67,32.8-2.26,5.11-6,7.53-11.51,7.68-4.28.12-8.55.42-12.81.73-1.22.09-2.84,0-2.23,2.73,5.58-.25,11.22-.16,16.92-.69s9.2-3.31,11.59-8.42c5.07-10.84,10.17-21.68,15.81-32.22C935.66,361,940.75,348,948.56,336.39ZM990,399.53c1.72-1,1.09-2.37,1-3.63-1.49-17-2.57-34.12-2-51.24.49-14.13,1.08-28.3,5.38-41.92,4.88-15.43,15.13-27,27.71-36.61,5.12-3.91,10.94-4.34,16.21.49.75.68,1.55,1.33,2.73.09.14-2.5-2-3.51-3.76-4.37-5.86-2.82-11.53-1.72-16.9,1.45-11.16,6.6-17.82,17.23-24.44,27.79-3.78,6-5.71,12.88-6.76,19.93-4.23,28.35-3.23,56.77-.92,85.2C988.3,397.82,988.13,399.11,990,399.53Z"/><path class="cls-6" d="M825.18,467.86c-.47,5.2,1.51,10.05,2.35,15,6.27,37.26-4.45,68.47-32.81,93.48-18.81,16.59-39.94,29.7-62.17,41.21-13,6.76-25.69,14.3-38.55,21.43-14.75,8.2-30,15.39-45.37,22.35-12.6,5.7-25,11.84-38,16.57a275.37,275.37,0,0,1-47.51,12.55c-12,2-23.9,2-35.9,1.86-19.62-.3-37.8-6-53.42-17.6a133,133,0,0,1-42.21-52.33c-3.68-8.1-6.48-16.45-9.37-24.81-.72-2.1-.45-4.24-.78-6.34,23.15-7.72,41.88-21.12,56.28-41.2,20.51-28.6,29.47-61,34-95.16,1-.84.85-1.89.54-3l.21-2.89c.12-.58.24-1.16.37-1.74a28.2,28.2,0,0,0,6.79-3.91c8-6.21,16-12.43,24.13-18.45,10.66-7.88,21.46-15.57,32.19-23.34,16.19,2.49,32.29,5.59,48.6,7.29,24.88,2.59,49.76,3.6,74.65.2,1.12-.16,2.22-.54,3.33-.81a1.71,1.71,0,0,0,.79.28c9.2,25.34,26.55,41.55,52.93,48.2,20.61,5.19,41.54,8,62.63,10.05C821,467,823.08,467.5,825.18,467.86ZM598,487.05l1.61-3.22c-1.08.89-3,1.45-1.58,3.32l-.9-.59-.33.71Zm48.93,21.42c.42-.29.48-.63.06-1-.08-.07-.29,0-.43,0l.5.85a17.19,17.19,0,0,0,1.89,2.18c7.22,5.95,7.24,6.16,1.65,13.5a16.78,16.78,0,0,0-1.16,2.62c-2.72,5.38-7.14,6.16-11.38,1.91-1.85-1.85-3.44-3.91-5.9-5.07C624.7,520,624.72,520,625.22,512c0-.81,0-1.62,0-2.44l4.11-5.93c3.62-1,7.21-.38,10.92.73a3,3,0,0,0-3.72-2.8c-3.71.58-4.76-1.77-6-4.39-3-6.39-6-12.77-9.15-19.07-2.89-5.75-10.25-8.93-14-5.82a24.43,24.43,0,0,0-8.07,11.65c2.83-3.13,4.58-5.46,6.71-7.35,5.25-4.66,10.67-3.64,14.27,2.35,1.39,2.33,1.39,5.12,2.54,7.38,2.08,4.07.31,6.38-3,7.87-2.91,1.3-4.09,3.28-4.75,6.27-1,4.68-3.68,6.38-8.4,5-6.67-2-11.46-6.18-12.32-14.39-8.71,12.27-14.9,25.17-23,37.21-.82-1.44-1.61-2.67-2.26-4-2.34-4.63-5.23-8.6-11.18-8-5.76.6-8.89,4.44-10.9,9.49a36.26,36.26,0,0,1-2.43,5.34c-5.78,9.72-11.67,19.38-17.49,29.08-5.07,8.48-1,16.6,8.8,17.2,8.35.5,16.74.9,25.07,1,44,.51,87.95,0,131.93-.73,6.26-.11,12.52,0,18.78-.2,4.85-.2,8.41-2.51,10-7.39,1.49-4.67.15-8.62-3.62-11.38-6.46-4.71-12.54-9.91-19.1-14.51-15.42-10.81-31.54-20.63-46.07-32.7C651.23,510.12,649.76,507.68,646.92,508.47Z"/><path class="cls-6" d="M817.22,450.71a428.68,428.68,0,0,1-42.81-6.13,158.94,158.94,0,0,1-19.55-5.06c-15.59-5.31-26.75-15.56-33.9-30.31-.74-1.51-1.43-3-.58-4.68,9.37-1.92,18.44-5,26.41-10.15a150.89,150.89,0,0,0,24.62-19.2A276.38,276.38,0,0,1,789,398.56c8.21,12.25,17.14,24.09,22.78,37.83C813.73,441.09,818.18,444.91,817.22,450.71Z"/><path class="cls-2" d="M771.41,375.18a150.89,150.89,0,0,1-24.62,19.2c-8,5.12-17,8.23-26.41,10.15l-1.26-.07a41.14,41.14,0,0,1-4.76-14.84c0-.32,0-.65,0-1,17.76-4,33.47-11.76,45.74-25.61,4.85-5.15,7.88-11.37,10.55-17.81,2.61-4.82,4-10.06,5.07-15.36,4.24-20.3,1.52-40.28-3.57-60A273.25,273.25,0,0,0,748,208.72l-1-2a11.66,11.66,0,0,0,5.67-4.09c1.6-2.13,3.38-4.23,6.22-4.87.29,0,.57,0,.86,0A255.51,255.51,0,0,1,790.58,280c4,21.47,4.76,42.84-2.17,63.91-1.89,5.77-4.32,11.36-6.51,17Z"/><path class="cls-4" d="M771.41,375.18,781.9,361c3.43.62,4.26,4,6.06,6.12a320.61,320.61,0,0,1,41.41,63c3.54,7.18,5.94,14.91,8.87,22.39l-21-1.75c1-5.8-3.48-9.62-5.41-14.32-5.64-13.74-14.57-25.58-22.78-37.83A276.38,276.38,0,0,0,771.41,375.18Z"/><path class="cls-7" d="M758.86,197.75c-2.84.64-4.62,2.74-6.22,4.87a11.66,11.66,0,0,1-5.67,4.09c-2.57-4.66-6.77-8.39-7.84-13.9,3.48-2.09,5.22-6.18,9.15-7.86a7.22,7.22,0,0,1,3.64-1C753.68,188.82,758.57,192.13,758.86,197.75Z"/><path class="cls-7" d="M714.36,389.62a41.14,41.14,0,0,0,4.76,14.84c-4.89,2.82-10.65,2.29-15.8,4.11a1.71,1.71,0,0,1-.79-.28c.52-4.11-2.58-7.29-2.88-11.17-.14-1.79,0-3.6,0-5.39C704.72,392.41,709.3,389.3,714.36,389.62Z"/><path class="cls-6" d="M399.78,576.5c-23.92,2.89-47.26-1.15-70.39-6.45-20.51-4.7-41.1-9.24-61.22-15.32-36.42-11-73.64-20.11-107.47-38.19-18.64-10-36.94-21-51.73-36.49-22.38-23.48-32.79-51.46-30.88-84,1.74-29.5,10.53-56.28,28.48-80.07a120.51,120.51,0,0,1,19.11-19.71c9.46-7.93,20.58-11.34,32.66-12.47,13.66-1.27,27.32-.65,40.94.18,23.64,1.44,47.22,3.67,70.76,6.42q38.2,4.47,76.43,8.81a8.38,8.38,0,0,1,4.65,2.55c20,21.59,45.33,35.37,71.08,48.8,23.42,12.22,48.11,20.84,73,29.25a9.69,9.69,0,0,1,1.66,1c0,3.27,0,6.54.08,9.81.58,16.21-1.6,32.31-2,48.48a1.46,1.46,0,0,0-.35.74c-13.87,8.55-26.61,18.77-38.76,29.42s-25,20.83-35.53,33.49a81.28,81.28,0,0,0-16.63,31.75C399.94,548.29,399.75,562.37,399.78,576.5ZM294.48,387.57l-.83-1.24c1-3.49,4.11-5,6.66-7,6.09-4.82,9.83-19.76,6.46-27.39-.7,2-2.4,2.27-3.79,3a19.87,19.87,0,0,0-11,16.46c-.35,3.45-.7,6.89-.9,10.34-.65,11.22-8.27,17.81-15.63,24.81-.49-.61-.66-.72-.67-.85,0-.8-.08-1.59-.06-2.39.27-10.16-3.26-18.59-11.07-25.26-2.94-2.51-4.58-2-6.43,1.25a25.15,25.15,0,0,0-3.15,13.22c.16,8.8,3.85,16.54,7,24.47,1.06,2.65,3.15,5.91,1.73,8.23-3.88,6.32-6.83,13.31-13,19.9,3.77-19.23-4.59-31.34-18.68-40.47-2,1-2.16,2.3-2.36,3.61-1.88,12.26,1.17,23.1,9.33,32.46,1.94,2.22,4.08,4.26,5.39,7,1.43,3,1.32,5.38-1.22,7.93-4.53,4.57-9,9.18-14.21,13-1.44,1.05-3.38,2.11-.76,4.11,1.53-1.1,3.39-2,4.62-3.42,3.74-4.32,8.47-4.92,13.77-4.64a97.23,97.23,0,0,0,19.73-.84c7.57-1.15,14.38-3.7,18.2-11.05.88-1.69,2.5-3.58,1.24-5.48-1.46-2.21-3.89-1.15-5.89-.66-8.83,2.13-16.72,6.75-25.24,9.73-3.72,1.29-7.16,3.44-12,4.11a198.93,198.93,0,0,0,17.14-23.28,3.51,3.51,0,0,1,3.66-1.83c7.23.66,13.66-1.9,20.15-4.64a66.76,66.76,0,0,0,20.38-13.62c1.34-1.27,2.57-2.74,1.8-4.77s-2.83-2.09-4.61-2.07c-10.27.08-19.45,2.78-26.41,11-1.95,2.29-3.62,5.07-7.34,6.11.94-1.94.52-3.66,1.55-5.26a150.15,150.15,0,0,1,26.2-30.47c2.21-2,4.69-3.2,7.93-2.74,4.22.61,8.51.81,12.76,1.2,9.62.87,22.31-6.88,24.36-15.49l-29,5.51c4.77-4.54,10.92-6.21,17.37-9-3.67-1.37-4-1.46-5.56-.92-8.32,2.94-15.9,7.16-22.08,13.54A14.93,14.93,0,0,1,294.48,387.57Z"/><path class="cls-6" d="M356.21,282c-2.83-.78-4.14-3.27-5.54-5.39-15.59-23.51-17.55-48.15-6.7-74.21,6.7-16.08,16.76-29.65,28.11-42.63,15.73-18,35.11-31,55.22-43.4,24.93-15.39,51.94-24.4,80.59-29,23.5-3.79,46.53-1.1,69.27,5.69,18,5.37,36.21,10.25,53.19,18.23,23.45,11,47.22,21.91,67.26,38.75,15.09,12.68,29.67,26.06,40.64,42.76,0,2-1.58,3.17-2.79,4.48-13.31,14.4-22,31.34-28.23,49.84-7.16,21.25-10,43.18-11.81,65.35-2.64-.5-4.55,1.42-6.84,2-13.46,3.44-25.85,9.41-37.88,16.11-11.45,6.38-23.17,12.46-33.8,20-11.63,8.3-23.7,15.9-35.36,24.11-3.36,2.37-7.5,4.07-9.64,8-9.06-.48-17.67-3.26-26.4-5.33-9.07-2.15-18-4.83-27-7.25-1.75-.48-3.49-.92-4.83-2.26-4.27-30.1-20-51.61-48.32-63.11-21.88-8.87-45.06-13-68.21-16.93C383.54,285.54,370,283,356.21,282Zm209.9,5.37a17.69,17.69,0,0,0,6.5-8c1.29-3.34,2.74-6.64,4.33-9.86,8.71-17.6,20.44-33.28,31.56-49.34a60.68,60.68,0,0,0,8.21-16.75c8.27-26.65-12.52-54.75-39.29-53.33-2.3.12-4.61,0-6.92.09-14.49.46-24.79,7.39-30.75,20.5a179.42,179.42,0,0,0-8.94,25C520.4,232,542.78,266.83,566.11,287.36Z"/><path class="cls-6" d="M698.59,391.65a131.08,131.08,0,0,1-32.54,3.79c-23.72-.1-47-4.15-70.28-7.89.28-.4.47-.93.85-1.17,18.35-11.92,36.57-24,55.12-35.63a175.67,175.67,0,0,1,42.83-19.46c1,6.36.92,12.77.87,19.17A217,217,0,0,0,698.59,391.65Z"/><path class="cls-3" d="M356.21,282c13.77,1,27.33,3.55,40.9,5.86,23.15,3.94,46.33,8.06,68.21,16.93,28.34,11.5,44.05,33,48.32,63.11-7.32-.58-13.94-3.66-20.79-5.91-3.6-15.52-11.73-27.74-26.32-34.84C448.92,318.57,430,313.83,411,309.68c-10.53-2.31-21.13-4.68-32-5.11l.09.06-.82-.13c-6.7-5.1-12.54-11.14-18.58-16.94C358.16,286.07,356.2,284.57,356.21,282Z"/><path class="cls-1" d="M698.59,391.65a217,217,0,0,1-3.15-41.19c0-6.4.17-12.81-.87-19.17a92.79,92.79,0,0,0,.85-18.84c1.78-22.17,4.65-44.1,11.81-65.35,6.23-18.5,14.92-35.44,28.23-49.84,1.21-1.31,2.74-2.44,2.79-4.48.29,0,.58,0,.88,0,1.07,5.51,5.27,9.24,7.84,13.9l1,2c-5.07,2.82-7.9,7.72-10.81,12.32-11.46,18.15-18.27,38.08-21.81,59.2-1.73,10.34-3.48,20.67-3.61,31.19l-.81,20c.14,7.52.31,15,.4,22.56.12,11.64.63,23.23,3.06,34.66,0,.32,0,.65,0,1-5.06-.32-9.64,2.79-14.75,2.11Z"/><path class="cls-4" d="M695.42,312.45a92.79,92.79,0,0,1-.85,18.84,175.67,175.67,0,0,0-42.83,19.46c-18.55,11.59-36.77,23.71-55.12,35.63-.38.24-.57.77-.85,1.17-8-1.18-16.12-2.23-23.87-4.82,2.14-3.94,6.28-5.64,9.64-8,11.66-8.21,23.73-15.81,35.36-24.11,10.63-7.58,22.35-13.66,33.8-20,12-6.7,24.42-12.67,37.88-16.11C690.87,313.87,692.78,312,695.42,312.45Z"/><path class="cls-6" d="M379,304.57c10.87.43,21.47,2.8,32,5.11,19,4.15,37.9,8.89,55.51,17.46,14.59,7.1,22.72,19.32,26.32,34.84-18.92-5.08-36.27-14.11-54.2-21.67A265.65,265.65,0,0,1,396,317.7C390,313.78,384.66,309,379,304.57Z"/><path class="cls-4" d="M576,401.61c-10.73,7.77-21.53,15.46-32.19,23.34-8.14,6-16.13,12.24-24.13,18.45a28.07,28.07,0,0,1-6.8,3.91q.84-11.58,1.66-23.16c.11-.67.22-1.34.32-2,1.79.14,3.13-.94,4.41-1.86q12.28-8.76,24.45-17.71c2.42-1.78,5.66-2.69,6.66-6.05C559,397.4,567.42,399.87,576,401.61Z"/><path class="cls-3" d="M514.81,422.14c-.1.67-.21,1.34-.31,2-7.5,3.7-12.5,10.67-19.6,14.9.4-16.17,2.58-32.27,2-48.48-.11-3.27-.06-6.54-.08-9.81,6.78,1.09,13.13,3.74,19.74,5.48-1.32,1.73-.75,3.76-.8,5.66-.24,7.8-.38,15.6-.56,23.41a1.73,1.73,0,0,0-.22,2.08Z"/><path class="cls-6" d="M515.2,415.31c.18-7.81.32-15.61.56-23.41,0-1.9-.52-3.93.8-5.66,11.29,3.32,22.91,5.56,33.77,10.28-1,3.36-4.24,4.27-6.66,6.05q-12.17,8.94-24.45,17.71c-1.28.92-2.62,2-4.41,1.86.06-1.58.11-3.17.16-4.75A1.67,1.67,0,0,0,515.2,415.31Z"/><path class="cls-6" d="M378.29,304.5l.82.13A3.26,3.26,0,0,0,378.29,304.5Z"/><path class="cls-4" d="M399.78,576.5c0-14.13.16-28.21,3.85-42a81.28,81.28,0,0,1,16.63-31.75c10.54-12.66,23.33-22.8,35.53-33.49s24.89-20.87,38.76-29.42a16.49,16.49,0,0,1-.22,5.33c-1,5.91-1.66,11.86-2.45,17.8-.35,1-.69,1.93-1,2.89-2.06-.33-3.3,1-4.72,2.17-10.66,8.82-21.57,17.35-32,26.44-9.23,8-18.4,16.27-25.08,26.73-3.08,4.81-6.11,9.6-7.6,15.32C418.4,548.16,417.6,560,417.68,572a.82.82,0,0,1,.08.7,91.42,91.42,0,0,1-17.05,4A2.31,2.31,0,0,1,399.78,576.5Z"/><path class="cls-8" d="M400.71,576.69a91.42,91.42,0,0,0,17.05-4q1.56,9.25,3.14,18.51c-5.25,3.34-11.18,3.86-17.16,4.18C401.93,589.29,402,582.89,400.71,576.69Z"/><path class="cls-3" d="M420.9,591.21q-1.57-9.26-3.14-18.51a.82.82,0,0,0-.08-.7,68.21,68.21,0,0,0,31.61-18.3C462,541,472.2,526.41,478.67,509.32c5.37-14.18,10-28.48,12.18-43.51l1-2.89a6.27,6.27,0,0,0,3-1.63c5.75-4.25,11-9.23,17.63-12.24l-.21,2.89a3,3,0,0,0-.54,3c-4.54,34.14-13.5,66.56-34,95.16-14.4,20.08-33.13,33.48-56.28,41.2A2.39,2.39,0,0,0,420.9,591.21Z"/><path class="cls-6" d="M1135.6,203.69a15.94,15.94,0,0,1,15.59-16.32c10.54-.18,16.1,8.4,16.56,17.15.43,8.36-7.64,15.91-16.21,15.95S1135.63,212.69,1135.6,203.69Z"/><path class="cls-6" d="M662.9,755c.06,8.83-7.74,16.28-17,16.25-8.36,0-15.18-7.28-15.23-16.22a16.7,16.7,0,0,1,16.17-17.12C655.65,737.72,662.84,745.36,662.9,755Z"/><path class="cls-6" d="M263.29,219.38c2.72-7.8,8.1-11.64,15.22-11.23,7.45.42,12.45,4.79,14.4,13.13Z"/><path class="cls-6" d="M85.32,251.92A16,16,0,0,1,69.4,268a16.7,16.7,0,0,1-16.68-16.59,16.14,16.14,0,0,1,15.92-16.11A17,17,0,0,1,85.32,251.92Z"/><path class="cls-6" d="M1184.47,282.78c-10.16-.5-15.4-7.53-15.68-17.36-.25-8.74,8-16.3,16.6-16.18,9.12.13,16.5,7.52,16.35,16.37A17.2,17.2,0,0,1,1184.47,282.78Z"/><path class="cls-6" d="M589.59,25H560.82c1.71-7.45,6.95-11.73,14-11.76C582.39,13.22,587.89,17.57,589.59,25Z"/><path class="cls-6" d="M466.23,46.15A15.87,15.87,0,0,1,450.59,62c-8.6.17-16.45-7.63-16.15-16.59s6.07-17,16-17C459.86,28.34,466.1,36.9,466.23,46.15Z"/><path class="cls-6" d="M408.25,717.71,406,718c-.16-1,.41-1.31,1-1.61Z"/><path class="cls-6" d="M485.4,773l-1.06.55c-.06-.52-.13-1-.19-1.56Z"/><path class="cls-6" d="M1102.5,140.42c8.64.14,15.3,7.5,15.18,16.75s-8,17-16.65,16.78-15.71-7.66-15.52-16.06C1085.74,147.84,1093.11,140.27,1102.5,140.42Z"/><path class="cls-5" d="M990,399.53c-1.84-.42-1.67-1.71-1.76-2.82-2.31-28.43-3.31-56.85.92-85.2,1-7.05,3-13.89,6.76-19.93,6.62-10.56,13.28-21.19,24.44-27.79,5.37-3.17,11-4.27,16.9-1.45,1.79.86,3.9,1.87,3.76,4.37-1.18,1.24-2,.59-2.73-.09-5.27-4.83-11.09-4.4-16.21-.49-12.58,9.58-22.83,21.18-27.71,36.61-4.3,13.62-4.89,27.79-5.38,41.92-.58,17.12.5,34.2,2,51.24C991.06,397.16,991.69,398.53,990,399.53Z"/><path class="cls-1" d="M998.18,317.72q-.93-6.83,5.81-8.22c4.87-1.94,9.48-.33,14.11,1l-.08-.09c-.06.77.37,1.06,1.07,1.07l-.08-.08c.46,1.17,0,2.95,2.06,3.05l-.09-.08c1.69,4.91,3,9.84,1,15l.09-.07c-1.83.22-2.23,1.87-3.07,3.08l.13-.14-1.12,1.12.14-.09a5.55,5.55,0,0,0-3.78,2.58c-1.11.58-2.15,1.41-3.54,1-1.72-1.94-4.09-1.36-6.23-1.62l.11.07c-.24-.8-.89-1-1.61-1.06l.12.1a1.77,1.77,0,0,0-2.08-1.08l.06.06c.07-1.43-.82-1.91-2-2.05l.07.07a1.86,1.86,0,0,0-1.07-2.08l.08.12c-.08-.84,0-1.74-1.06-2.1l.07.12C997.33,324.17,996.2,320.8,998.18,317.72Z"/><path class="cls-5" d="M948.54,336.41c-7.79,11.59-12.88,24.6-19.42,36.85-5.64,10.54-10.74,21.38-15.81,32.22-2.39,5.11-5.84,7.89-11.59,8.42s-11.34.44-16.92.69c-.61-2.7,1-2.64,2.23-2.73,4.26-.31,8.53-.61,12.81-.73,5.5-.15,9.25-2.57,11.51-7.68,4.91-11.08,9.87-22.14,15.67-32.8,7.36-13.54,13.75-27.58,21.5-40.92,6.87-11.81,14.72-15.93,28.19-13.86,3.25.5,6.82.1,9.65,2.17-.17,2.09-1.47,1.82-2.58,1.68-2.28-.29-4.54-.74-6.83-1-14.48-1.84-21.75,2.69-28.53,17.75Z"/><path class="cls-5" d="M948.42,336.45c3.64.05,7.28.13,10.92.15,7.93,0,14.07-3.68,19-9.46,2.9,1.46,1.21,2.78.2,3.87a24.79,24.79,0,0,1-19.78,8.36c-1.78-.05-3.55-.19-5.92-.31,5.78,12.86,11.32,25.28,16.94,37.66,2.71,6,5.4,11.95,7.57,18.17,3.75,10.8,11.32,15,22.77,13.13,2.32-.38,4.84-1.88,7.28.28-9.71,6.7-24.79,3-30-7.71-5.57-11.34-10.54-23-15.71-34.51-4.43-9.87-8.77-19.79-13.16-29.68Z"/><path class="cls-5" d="M1022,329.39c2-5.15.7-10.08-1-15C1024.54,319.18,1025.19,324.16,1022,329.39Z"/><path class="cls-5" d="M1018.1,310.53c-4.63-1.36-9.24-3-14.11-1C1009,306.3,1013.6,307.35,1018.1,310.53Z"/><path class="cls-5" d="M998.18,317.72c-2,3.08-.85,6.45-.94,9.71C996,324,994.56,320.64,998.18,317.72Z"/><path class="cls-5" d="M1004.59,335.26c2.14.26,4.51-.32,6.23,1.62C1008.72,336.44,1006.37,336.93,1004.59,335.26Z"/><path class="cls-5" d="M1014.36,335.87a5.55,5.55,0,0,1,3.78-2.58C1017.86,335.58,1015.59,335,1014.36,335.87Z"/><path class="cls-5" d="M1019,332.4c.84-1.21,1.24-2.86,3.07-3.08C1021.39,330.7,1021.18,332.54,1019,332.4Z"/><path class="cls-5" d="M1021.07,314.48c-2-.1-1.6-1.88-2.06-3.05A3,3,0,0,1,1021.07,314.48Z"/><path class="cls-5" d="M999.15,331.3c1.22.14,2.11.62,2,2.05A2.88,2.88,0,0,1,999.15,331.3Z"/><path class="cls-5" d="M1001.13,333.29a1.77,1.77,0,0,1,2.08,1.08A1.59,1.59,0,0,1,1001.13,333.29Z"/><path class="cls-5" d="M998.15,329.29a1.86,1.86,0,0,1,1.07,2.08A1.64,1.64,0,0,1,998.15,329.29Z"/><path class="cls-5" d="M997.17,327.31c1,.36,1,1.26,1.06,2.1C996.94,329.18,997.14,328.2,997.17,327.31Z"/><path class="cls-5" d="M1003.09,334.27c.72.07,1.37.26,1.61,1.06C1004,335.27,1003.12,335.4,1003.09,334.27Z"/><path class="cls-5" d="M1018,333.38l1.12-1.12C1019.64,333.52,1018.86,333.48,1018,333.38Z"/><path class="cls-5" d="M1019.09,311.51c-.7,0-1.13-.3-1.07-1.07Z"/><path class="cls-1" d="M629.31,503.59l-4.11,5.93c-4.47,14.23-9.17,28.4-13.32,42.72-2.23,7.69-6.4,15.67,1.06,23.54h-26.4c5.75-7,2.17-12.65-.77-18.44-3.87-7.61-7.55-15.32-11.43-22.92a6.38,6.38,0,0,1,.32-7.24c3.49-5.36,7-10.74,9.92-16.45,2.37-4.57,5.4-8.8,8.37-13.54,1.24,1.9,2,3.17,2.85,4.37,7,9.9,16.28,9.36,21.87-1.24a8.37,8.37,0,0,1,1-1.67C621,496,624,496,626.84,497.28,629.52,498.47,630.58,500.67,629.31,503.59Z"/><path class="cls-5" d="M629.31,503.59c1.27-2.92.21-5.12-2.47-6.31C624,496,621,496,618.71,498.65a8.37,8.37,0,0,0-1,1.67c-5.59,10.6-14.9,11.14-21.87,1.24-.85-1.2-1.61-2.47-2.85-4.37-3,4.74-6,9-8.37,13.54-3,5.71-6.43,11.09-9.92,16.45a6.38,6.38,0,0,0-.32,7.24c3.88,7.6,7.56,15.31,11.43,22.92,2.94,5.79,6.52,11.44.77,18.44h26.4c-7.46-7.87-3.29-15.85-1.06-23.54,4.15-14.32,8.85-28.49,13.32-42.72,0,.82.07,1.63,0,2.44-.5,8.05-.52,8.07,6.93,11.58,2.46,1.16,4.05,3.22,5.9,5.07,4.24,4.25,8.66,3.47,11.38-1.91a16.78,16.78,0,0,1,1.16-2.62c5.59-7.34,5.57-7.55-1.65-13.5a17.19,17.19,0,0,1-1.89-2.18l-.14.08c2.85-.8,4.32,1.64,5.93,3,14.53,12.07,30.65,21.89,46.07,32.7,6.56,4.6,12.64,9.8,19.1,14.51,3.77,2.76,5.11,6.71,3.62,11.38-1.56,4.88-5.12,7.19-10,7.39-6.26.25-12.52.09-18.78.2-44,.73-88,1.24-131.93.73-8.33-.09-16.72-.49-25.07-1-9.83-.6-13.87-8.72-8.8-17.2,5.82-9.7,11.71-19.36,17.49-29.08a36.26,36.26,0,0,0,2.43-5.34c2-5,5.14-8.89,10.9-9.49,6-.62,8.84,3.35,11.18,8,.65,1.29,1.44,2.52,2.26,4,8.09-12,14.28-24.94,23-37.21.86,8.21,5.65,12.39,12.32,14.39,4.72,1.41,7.37-.29,8.4-5,.66-3,1.84-5,4.75-6.27,3.34-1.49,5.11-3.8,3-7.87-1.15-2.26-1.15-5-2.54-7.38-3.6-6-9-7-14.27-2.35-2.13,1.89-3.88,4.22-6.71,7.35a24.43,24.43,0,0,1,8.07-11.65c3.75-3.11,11.11.07,14,5.82,3.16,6.3,6.17,12.68,9.15,19.07,1.22,2.62,2.27,5,6,4.39a3,3,0,0,1,3.72,2.8C636.52,503.21,632.93,502.54,629.31,503.59Zm-63.15,40.55c5.24-1.36,7.37-4.24,5.59-8.21A133.7,133.7,0,0,0,565,522.84c-2.24-3.79-6-4.63-9.76-2.68C549,523.38,542.17,537,543.3,544c-1.13-.31-1-2.22-3-1.94-4,6.79-8.38,13.74-12.26,20.94-3,5.48.27,11.52,6.63,11.8,15.12.66,30.27.91,45.42.93,5.33,0,8.86-5.8,6.68-10.66-3.54-7.9-7.51-15.61-11.33-23.44C569.91,545.42,569.91,545.42,566.16,544.14ZM623,524.85c-4.47,12.23-7.74,24.63-11.36,36.91-2.33,7.94,2.25,14.12,10.39,14.09q34.35-.12,68.71-.32c7.24,0,14.49-.28,21.73-.53,3.75-.13,6.08-2.3,7.07-5.83a7.72,7.72,0,0,0-2.86-8.79c-4.77-3.7-9.49-7.49-14.42-11-12.25-8.62-24.62-17.08-36.92-25.63-6.3-4.38-8-4.07-12.07,2.28-.62,1-1.19,2-1.84,2.93-4.85,7.06-9.64,7.67-15.79,1.8C632.16,527.51,628.47,525,623,524.85Z"/><path class="cls-8" d="M512.47,449.05c-6.62,3-11.88,8-17.63,12.24a6.27,6.27,0,0,1-3,1.63c.8-5.94,1.49-11.89,2.46-17.8a16.49,16.49,0,0,0,.22-5.33,1.46,1.46,0,0,1,.35-.74c7.1-4.23,12.1-11.2,19.6-14.9q-.84,11.58-1.67,23.16Z"/><path class="cls-5" d="M598,487.18c-1.47-1.9.49-2.46,1.57-3.35L598,487.05Z"/><path class="cls-8" d="M511.72,454.91a3,3,0,0,1,.54-3C512.57,453,512.7,454.07,511.72,454.91Z"/><path class="cls-5" d="M598,487.05l-1.2.22.33-.71c.3.2.6.39.91.61Z"/><path class="cls-5" d="M647.05,508.4l-.5-.85c.14,0,.35-.1.43,0,.42.32.36.66-.07,1Z"/><path class="cls-6" d="M711.72,311.43c.13-10.52,1.88-20.85,3.61-31.19,3.54-21.12,10.35-41.05,21.81-59.2,2.91-4.6,5.74-9.5,10.81-12.32a273.25,273.25,0,0,1,24.21,61.19c5.09,19.68,7.81,39.66,3.57,60-1.11,5.3-2.46,10.54-5.07,15.36-8.15-7.77-16-16-26-21.42C734.27,318.16,723.63,313.07,711.72,311.43Z"/><path class="cls-6" d="M714.37,388.65c-2.43-11.43-2.94-23-3.06-34.66-.09-7.52-.26-15-.4-22.56,9.19-.7,16.78,3.77,24.33,7.91,10.34,5.65,18.33,14,24.87,23.7C747.84,376.89,732.13,384.61,714.37,388.65Z"/><path class="cls-4" d="M760.11,363c-6.54-9.74-14.53-18.05-24.87-23.7-7.55-4.14-15.14-8.61-24.33-7.91l.81-20c11.91,1.64,22.55,6.73,32.94,12.38,10,5.45,17.85,13.65,26,21.42C768,351.67,765,357.89,760.11,363Z"/><path class="cls-5" d="M294.48,387.57a14.93,14.93,0,0,0,5.55-3.89c6.18-6.38,13.76-10.6,22.08-13.54,1.53-.54,1.89-.45,5.56.92-6.45,2.83-12.6,4.5-17.37,9l29-5.51c-2,8.61-14.74,16.36-24.36,15.49-4.25-.39-8.54-.59-12.76-1.2-3.24-.46-5.72.76-7.93,2.74a150.15,150.15,0,0,0-26.2,30.47c-1,1.6-.61,3.32-1.55,5.26,3.72-1,5.39-3.82,7.34-6.11,7-8.19,16.14-10.89,26.41-11,1.78,0,3.8-.06,4.61,2.07s-.46,3.5-1.8,4.77a66.76,66.76,0,0,1-20.38,13.62c-6.49,2.74-12.92,5.3-20.15,4.64a3.51,3.51,0,0,0-3.66,1.83,198.93,198.93,0,0,1-17.14,23.28c4.8-.67,8.24-2.82,12-4.11,8.52-3,16.41-7.6,25.24-9.73,2-.49,4.43-1.55,5.89.66,1.26,1.9-.36,3.79-1.24,5.48-3.82,7.35-10.63,9.9-18.2,11.05a97.23,97.23,0,0,1-19.73.84c-5.3-.28-10,.32-13.77,4.64-1.23,1.43-3.09,2.32-4.62,3.42-2.62-2-.68-3.06.76-4.11,5.23-3.8,9.68-8.41,14.21-13,2.54-2.55,2.65-5,1.22-7.93-1.31-2.73-3.45-4.77-5.39-7-8.16-9.36-11.21-20.2-9.33-32.46.2-1.31.34-2.65,2.36-3.61,14.09,9.13,22.45,21.24,18.68,40.47,6.15-6.59,9.1-13.58,13-19.9,1.42-2.32-.67-5.58-1.73-8.23-3.16-7.93-6.85-15.67-7-24.47a25.15,25.15,0,0,1,3.15-13.22c1.85-3.28,3.49-3.76,6.43-1.25,7.81,6.67,11.34,15.1,11.07,25.26,0,.8,0,1.59.06,2.39,0,.13.18.24.67.85,7.36-7,15-13.59,15.63-24.81.2-3.45.55-6.89.9-10.34a19.87,19.87,0,0,1,11-16.46c1.39-.75,3.09-1,3.79-3,3.37,7.63-.37,22.57-6.46,27.39-2.55,2-5.65,3.53-6.66,7a1,1,0,0,0-.27,1.55C293.49,388,294.1,387.68,294.48,387.57ZM299.14,376c5.93-4.73,4.3-11.79,6.05-18.18-6.55,2.47-10.3,8.63-10.11,15.93,2.61-1.5,1.24-6.06,5.27-6.84.87,3.36-1.57,5.67-2,8.43-.27.51-.61,1,.05,1.47C298.43,376.83,298.87,376.27,299.14,376Zm-30.35,37.9c-3.37-1.14-2.9-3.07-1.94-5.17,1.64-3.62,2-7.11-.15-10.81-1.16-2-1.47-4.54,1.9-7.71-.39,6,2.7,9.92,3.24,14.66,1.15-8.16-1.27-15.25-6.48-21.42-1.3-1.55-2.32-4.17-4.83-3.52-2.34.61-2.49,3.3-3,5.28-2.23,9.26,1.08,23.14,7.8,33Zm-30,10.33c4.73,1.2,6.11,5.36,8.93,9.37-.77-11.81-7.65-18.54-15.93-25.07-3,15.89,4.86,26.8,14.82,37.58C247.08,437.31,242.59,431,238.76,424.21Zm63.16-10.56c-8.62-1.08-15.47,1.2-21.78,5.43.25,2.11,2.68.26,3,2.61a54.52,54.52,0,0,1-15.33,9.37C281.14,429.82,292.24,424.16,301.92,413.65Zm-53.14,47.62c18.46,2.05,29-2,33.25-12.61C270.37,451.07,260.78,457.51,248.78,461.27ZM320.08,385l-11.92,1c11.07,2.92,19.5.41,24.89-7.31-3.59.72-6.92,1.72-10.29,2C319.68,380.86,318.29,381.62,320.08,385Zm-44.83,21c-1,.32-1.94.46-1.79,1.53a1.21,1.21,0,0,0,1,.66C275.31,408,275.61,407.29,275.25,406Z"/><path class="cls-5" d="M566.11,287.36c-23.33-20.53-45.71-55.34-35.3-91.75a179.42,179.42,0,0,1,8.94-25c6-13.11,16.26-20,30.75-20.5,2.31-.07,4.62,0,6.92-.09,26.77-1.42,47.56,26.68,39.29,53.33a60.68,60.68,0,0,1-8.21,16.75c-11.12,16.06-22.85,31.74-31.56,49.34-1.59,3.22-3,6.52-4.33,9.86A17.69,17.69,0,0,1,566.11,287.36Zm1-3.08c2.79-6.2,5.24-12.28,8.2-18.1,8.35-16.45,19.16-31.35,29.78-46.35a70.5,70.5,0,0,0,6.26-10.59c9.81-20.54,3.28-48.42-27-55.72-11.24-2.71-22.35,0-32.34,6.19a19.52,19.52,0,0,0-6.85,7C518.61,213.49,532,251.62,567.16,284.28Z"/><path class="cls-4" d="M515.2,415.31a1.67,1.67,0,0,1-.23,2.08A1.75,1.75,0,0,1,515.2,415.31Z"/><path class="cls-6" d="M490.85,465.81c-2.2,15-6.81,29.33-12.18,43.51C472.2,526.41,462,541,449.29,553.7A68.21,68.21,0,0,1,417.68,572c-.08-12,.72-23.84,3.77-35.53,1.49-5.72,4.52-10.51,7.6-15.32,6.68-10.46,15.85-18.69,25.08-26.73,10.43-9.09,21.34-17.62,32-26.44C487.55,466.82,488.79,465.48,490.85,465.81Z"/><path class="cls-1" d="M623,524.85c5.52.15,9.21,2.66,12.64,5.94,6.15,5.87,10.94,5.26,15.79-1.8.65-1,1.22-2,1.84-2.93,4.08-6.35,5.77-6.66,12.07-2.28,12.3,8.55,24.67,17,36.92,25.63,4.93,3.48,9.65,7.27,14.42,11a7.72,7.72,0,0,1,2.86,8.79c-1,3.53-3.32,5.7-7.07,5.83-7.24.25-14.49.48-21.73.53q-34.37.22-68.71.32c-8.14,0-12.72-6.15-10.39-14.09C615.21,549.48,618.48,537.08,623,524.85Z"/><path class="cls-1" d="M566.16,544.14c3.75,1.28,3.75,1.28,9.32-2.52,3.82,7.83,7.79,15.54,11.33,23.44,2.18,4.86-1.35,10.67-6.68,10.66-15.15,0-30.3-.27-45.42-.93-6.36-.28-9.58-6.32-6.63-11.8,3.88-7.2,8.25-14.15,12.26-20.94,2-.28,1.83,1.63,3,1.94,5.78,5.79,7.17,7.49,15,.89C561,542.59,563.36,542.63,566.16,544.14Z"/><path class="cls-6" d="M566.16,544.14c-2.8-1.51-5.21-1.55-7.91.74-7.78,6.6-9.17,4.9-15-.89-1.13-7,5.68-20.61,11.94-23.83,3.79-1.95,7.52-1.11,9.76,2.68a133.7,133.7,0,0,1,6.75,13.09C573.53,539.9,571.4,542.78,566.16,544.14Z"/><path class="cls-6" d="M268.79,413.88l-3.42,4.31c-6.72-9.86-10-23.74-7.8-33,.47-2,.62-4.67,3-5.28,2.51-.65,3.53,2,4.83,3.52,5.21,6.17,7.63,13.26,6.48,21.42-.54-4.74-3.63-8.63-3.24-14.66-3.37,3.17-3.06,5.67-1.9,7.71,2.11,3.7,1.79,7.19.15,10.81C265.89,410.81,265.42,412.74,268.79,413.88Z"/><path class="cls-6" d="M238.76,424.21c3.83,6.77,8.32,13.1,7.82,21.88-10-10.78-17.82-21.69-14.82-37.58,8.28,6.53,15.16,13.26,15.93,25.07C244.87,429.57,243.49,425.41,238.76,424.21Z"/><path class="cls-6" d="M301.92,413.65c-9.68,10.51-20.78,16.17-34.1,17.41a54.52,54.52,0,0,0,15.33-9.37c-.33-2.35-2.76-.5-3-2.61C286.45,414.85,293.3,412.57,301.92,413.65Z"/><path class="cls-6" d="M248.78,461.27c12-3.76,21.59-10.2,33.25-12.61C277.76,459.29,267.24,463.32,248.78,461.27Z"/><path class="cls-6" d="M298.33,375.32c.45-2.76,2.89-5.07,2-8.43-4,.78-2.66,5.34-5.27,6.84-.19-7.3,3.56-13.46,10.11-15.93-1.75,6.39-.12,13.45-6.05,18.18Z"/><path class="cls-6" d="M320.08,385c-1.79-3.41-.4-4.17,2.68-4.39,3.37-.24,6.7-1.24,10.29-2-5.39,7.72-13.82,10.23-24.89,7.31Z"/><path class="cls-6" d="M275.25,406c.36,1.31.06,2-.8,2.19a1.21,1.21,0,0,1-1-.66C273.31,406.44,274.22,406.3,275.25,406Z"/><path class="cls-6" d="M294.48,387.57c-.38.11-1,.43-1.1.31a1,1,0,0,1,.27-1.55Z"/><path class="cls-6" d="M299.14,376c-.27.29-.71.85-.76.81-.66-.43-.32-1-.05-1.47Z"/><path class="cls-6" d="M567.16,284.28c-35.16-32.66-48.55-70.79-22-117.58a19.52,19.52,0,0,1,6.85-7c10-6.17,21.1-8.9,32.34-6.19,30.29,7.3,36.82,35.18,27,55.72a70.5,70.5,0,0,1-6.26,10.59c-10.62,15-21.43,29.9-29.78,46.35C572.4,272,570,278.08,567.16,284.28Zm-12.25-88.84c0,11.33,7.92,19.37,19,19.34S593,206.58,593,195.41c0-11.44-8.2-19.75-19.37-19.66C562.63,175.83,554.88,184,554.91,195.44Z"/><path class="cls-5" d="M554.91,195.44c0-11.44,7.72-19.61,18.69-19.69C584.77,175.66,593,184,593,195.41c0,11.17-8.06,19.35-19.09,19.37S554.94,206.77,554.91,195.44Zm2.12-.14c0,10,7,17.33,16.69,17.39s17-7.31,17.09-17.13c.08-10.12-7.31-17.77-17.08-17.68S557,185.28,557,195.3Z"/><path class="cls-8" d="M557,195.3c0-10,7-17.33,16.7-17.42s17.16,7.56,17.08,17.68c-.07,9.82-7.43,17.19-17.09,17.13S557,205.33,557,195.3Z"/></g></g></svg>