<svg xmlns="http://www.w3.org/2000/svg" viewBox="0 0 454.83 280.06"><defs><style>.cls-1{font-size:78.97px;font-family:CenturyGothic-Bold, Century Gothic;font-weight:700;letter-spacing:0.2em;}.cls-1,.cls-7,.cls-8{fill:#7aa394;}.cls-2,.cls-4{opacity:0.81;}.cls-3{letter-spacing:0.2em;fill:#000;}.cls-11,.cls-12,.cls-4{fill:#f2b394;}.cls-10,.cls-5{fill:none;}.cls-10,.cls-11,.cls-12,.cls-5,.cls-6,.cls-7,.cls-8,.cls-9{stroke:#000;stroke-miterlimit:10;stroke-width:2px;}.cls-6{fill:#4f6858;}.cls-10,.cls-12,.cls-6,.cls-8,.cls-9{opacity:0.81;}.cls-9{fill:#ac5a43;}</style></defs><g id="Layer_2" data-name="Layer 2"><g id="Layer_1-2" data-name="Layer 1"><text class="cls-1" transform="translate(0 161.08)"><tspan class="cls-2">I</tspan><tspan class="cls-3" x="37.89" y="0">KI</tspan><tspan class="cls-4" x="140.54" y="0">G</tspan><tspan class="cls-3" x="222.65" y="0">UIDE</tspan></text><path class="cls-5" d="M320.85,62.86a23.11,23.11,0,0,1-19.91,16.67c20.43-.73,37-16,38.92-35.45A22.94,22.94,0,0,1,320.85,62.86ZM299.42,1C277,1,258.78,18.59,258.78,40.28c0,19.47,14.65,35.63,33.88,38.74a23,23,0,0,1-17.1-16.74,22.67,22.67,0,0,1-16.7-21.63A22.67,22.67,0,0,1,275.5,19a23.53,23.53,0,0,1,45.42-.6A22.9,22.9,0,0,1,340,38.25C338.91,17.5,321.15,1,299.42,1Z"/><path class="cls-6" d="M321.62,23.92a22.16,22.16,0,0,1-7.53,16.6,23.47,23.47,0,0,0-9.18-5,22.26,22.26,0,0,0-5.41-10,23.93,23.93,0,0,0-24-6.47,23.53,23.53,0,0,1,45.42-.6A21.55,21.55,0,0,1,321.62,23.92Z"/><path class="cls-7" d="M340.05,40.28c0,1.26-.06,2.5-.18,3.73,0,0,0,.05,0,.07a22.94,22.94,0,0,1-19,18.78,23.81,23.81,0,0,1-21.35-7.08A22.25,22.25,0,0,0,305,45.54a23.63,23.63,0,0,0,9.11-5,22.16,22.16,0,0,0,7.53-16.6,21.55,21.55,0,0,0-.7-5.48A22.9,22.9,0,0,1,340,38.25h0C340,38.93,340.05,39.6,340.05,40.28Z"/><path class="cls-8" d="M339.87,44c.12-1.23.18-2.47.18-3.73,0-.68,0-1.35-.05-2a23.6,23.6,0,0,1,.13,2.39A22,22,0,0,1,339.87,44Z"/><path class="cls-9" d="M299.5,25.51a22.34,22.34,0,0,0-5.28,9.39,23.57,23.57,0,0,0-11.74,5.62,22.13,22.13,0,0,0-7.54,16.6,21.5,21.5,0,0,0,.62,5.16,22.67,22.67,0,0,1-16.7-21.63A22.67,22.67,0,0,1,275.5,19a23.93,23.93,0,0,1,24,6.47Z"/><path class="cls-10" d="M314.09,40.52a23.63,23.63,0,0,1-9.11,5,22.25,22.25,0,0,1-5.48,10.24,22.27,22.27,0,0,1-5.35-9.65,23.5,23.5,0,0,1-11.67-5.61,23.57,23.57,0,0,1,11.74-5.62,22.34,22.34,0,0,1,5.28-9.39,22.26,22.26,0,0,1,5.41,10A23.47,23.47,0,0,1,314.09,40.52Z"/><path class="cls-11" d="M320.85,62.86a23.11,23.11,0,0,1-19.91,16.67c-.5,0-1,0-1.52,0a42.93,42.93,0,0,1-6.76-.54,23,23,0,0,1-17.1-16.74,21.5,21.5,0,0,1-.62-5.16,22.13,22.13,0,0,1,7.54-16.6,23.5,23.5,0,0,0,11.67,5.61,22.27,22.27,0,0,0,5.35,9.65,23.81,23.81,0,0,0,21.35,7.08Z"/><path class="cls-12" d="M299.42,79.56c.51,0,1,0,1.52,0a23.32,23.32,0,0,1-2.66.15,24.7,24.7,0,0,1-5.62-.66A42.93,42.93,0,0,0,299.42,79.56Z"/></g></g></svg>