<svg xmlns="http://www.w3.org/2000/svg" viewBox="0 0 576.34 798.36"><defs><style>.cls-1{fill:none;stroke:#fff;stroke-miterlimit:10;stroke-width:17px;}</style></defs><g id="Layer_2" data-name="Layer 2"><g id="Layer_1-2" data-name="Layer 1"><path class="cls-1" d="M523.42,424.55c-28,230.08-14.22,318.83-80,357-22.55,13.08-71.17,8.9-167.5,0-145.81-13.47-219.25-20.78-245.5-49-43.14-46.37-14-103.94,14-308.5,36.86-269.52,12.38-360.66,83-404.5,22.6-14,78.71-12.22,190-8,134,5.07,201.41,8.05,225,30C594.9,90.38,554.79,166.43,523.42,424.55Z"/><path class="cls-1" d="M477.59,373.83c-23.5,174-11.95,241.07-67.22,269.93-18.95,9.89-59.81,6.73-140.75,0-122.52-10.19-184.23-15.71-206.29-37C27.08,571.65,51.58,528.12,75.1,373.45c31-203.79,10.41-272.7,69.74-305.85,19-10.61,66.14-9.24,159.65-6,112.56,3.83,169.25,6.09,189.06,22.68C537.65,121.16,504,178.66,477.59,373.83Z"/><ellipse class="cls-1" cx="241.42" cy="712.55" rx="65" ry="44"/></g></g></svg>