<svg xmlns="http://www.w3.org/2000/svg" viewBox="0 0 1164.23 774.56"><defs><style>.cls-1,.cls-10,.cls-3,.cls-4{fill:none;}.cls-1,.cls-10{stroke:#ac5a43;}.cls-1,.cls-10,.cls-2,.cls-3,.cls-5,.cls-6,.cls-8{stroke-miterlimit:10;}.cls-1{stroke-width:7px;}.cls-1,.cls-10,.cls-6{opacity:0.81;}.cls-2{fill:#f2b394;}.cls-2,.cls-3,.cls-5,.cls-6,.cls-8{stroke:#000;}.cls-2,.cls-3,.cls-5,.cls-6{stroke-width:2px;}.cls-5,.cls-8,.cls-9{fill:#7aa394;}.cls-6{fill:#ac5a43;}.cls-7{fill:#fcfcfc;}.cls-8{stroke-width:0.25px;}.cls-10{stroke-width:4px;}</style></defs><g id="Layer_2" data-name="Layer 2"><g id="Layer_1-2" data-name="Layer 1"><path class="cls-1" d="M3.59,442.37C3,375.5,1.24,169.86,133.33,63.45,240.75-23.09,380.56,1.26,548.61,30.52,753.21,66.15,1089.25,121.2,1149.73,355c31.92,123.41-5.68,281.44-112.37,369.88-50.06,41.5-103.43,53.57-432.64,42C167.72,751.47,95.33,723,49.93,661.28,5,600.13,4.36,530.64,3.59,442.37Z"/><path class="cls-2" d="M796.82,261.88c-.13,11.08-4.56,20.9-8.6,27.61l-110.07,3c-5.63-18.95-1-42,11.71-57.11,11.69-13.84,28.92-19.47,46-19.53,22.48-.07,44.75,9.43,54,22.53a32.6,32.6,0,0,1,2.62,4.44,43.24,43.24,0,0,1,3.38,9.56A40.26,40.26,0,0,1,796.82,261.88Z"/><line class="cls-3" x1="826.86" y1="288.42" x2="788.22" y2="289.49"/><line class="cls-3" x1="678.15" y1="292.53" x2="645.86" y2="293.42"/><line class="cls-3" x1="642.38" y1="261.77" x2="675.34" y2="266.08"/><line class="cls-3" x1="682.36" y1="246.92" x2="652.35" y2="228.42"/><line class="cls-4" x1="467.2" y1="373.8" x2="482.2" y2="399.8"/><line class="cls-3" x1="732.36" y1="184.92" x2="735.99" y2="216.93"/><line class="cls-3" x1="701.36" y1="224.92" x2="684.36" y2="195.92"/><line class="cls-3" x1="765.36" y1="220.92" x2="786.36" y2="190.92"/><line class="cls-3" x1="792.36" y1="242.92" x2="824.36" y2="227.92"/><line class="cls-3" x1="796.36" y1="261.92" x2="837.36" y2="257.92"/><path class="cls-3" d="M502.2,187.26a83.62,83.62,0,0,1,24.35,31.3c4.74,10.71,11.88,26.84,5.21,44.35s-24.7,29.42-42.61,30.44a47.49,47.49,0,0,1-26.82-6.74c-4.64-2.73-19.73-11.65-20.14-26.3,0-1.21-.2-14.31,9.57-19.14,7.15-3.53,44.58,2.6,49.57-12.17,3.24-9.6-1.66-18.72-6.09-27-6.94-12.92-14.78-21.74-22.61-24.35-7.83-1.74-29.53-5.44-47.83,12.18C413.27,201,411.2,215,410,222.91c-1.08,7.27-4.54,30.57,11.3,48.7,10.07,11.53,23,15.25,28.7,16.52"/><circle class="cls-2" cx="464.37" cy="213.78" r="11.74"/><circle class="cls-5" cx="483.93" cy="265.52" r="12.17"/><path class="cls-2" d="M731.36,430.76c-3.49,7.56-19.54,7.15-28.92,4.63a40.74,40.74,0,0,1-20.83-13.89,43.23,43.23,0,0,1-9.25-22A67.11,67.11,0,0,1,692,398.36c6.53.59,16.45,1.48,25.45,8.1C724.81,411.85,734.75,423.42,731.36,430.76Z"/><path class="cls-2" d="M737.15,428.44c-.46-1.62.06-3.13.78-5.26,1.92-5.63,6.18-8.95,10.79-12.09,9.92-6.77,14.89-10.15,23.14-12.73,8-2.51,22.14-6.9,26.61-1.16s-3,18.18-4.63,20.83A37.74,37.74,0,0,1,780,431.92C763.2,441.31,739.39,436.33,737.15,428.44Z"/><path class="cls-2" d="M733.68,420.35c-7-.83-10.35-18-11.57-24.3-2.75-14.23.15-24.57,1.16-27.77,1.46-4.67,5.36-17.09,11.57-17.36,5.71-.24,10.37,9.92,12.72,15.05a45,45,0,0,1,4.63,20.82C751.65,403.23,741.21,421.23,733.68,420.35Z"/><path class="cls-3" d="M694.75,393.94c-5.3-5.08,1.88-20.35,0-25.48-.07-.19-.32-.83,0-1.2.76-.9,4.09.53,8,2.13,11,4.48,12.33,4.37,13.73,6.41s1.16,3.83,1.15,8.53a127.36,127.36,0,0,0,1.14,17.08,42.05,42.05,0,0,0-12.59-5.34C698.86,394.31,696.88,396,694.75,393.94Z"/><path class="cls-3" d="M758.65,371c4.42-3.87,15.64-2.42,19.62-4.77a1.53,1.53,0,0,1,1.18-.29c1.2.46.33,4.35,0,6.07-2.29,11.68,1.88,16.32-2.32,20.24-1.65,1.55-2.25.78-8.08,3-10,3.86-13.35,8.09-15,7.09s2.19-6,3.47-15.18C758.9,377,755.36,373.85,758.65,371Z"/><circle class="cls-6" cx="715.17" cy="456.21" r="4.63"/><circle class="cls-6" cx="755.66" cy="455.06" r="4.63"/><circle class="cls-6" cx="742.93" cy="450.43" r="4.63"/><circle class="cls-6" cx="727.89" cy="450.43" r="4.63"/><path class="cls-5" d="M259.69,297.31l-95.31.25a9.65,9.65,0,0,1-8.2-14.76l53.8-86a9.65,9.65,0,0,1,16.86.92l41.51,85.79A9.64,9.64,0,0,1,259.69,297.31Z"/><path class="cls-5" d="M184.41,297.36l-45.23-1a9.64,9.64,0,0,1-8-14.75q7.65-12.22,15.29-24.45,4.62-7.38,9.23-14.75a9.61,9.61,0,0,1,8.57-4.52,9.52,9.52,0,0,1,8.17,5.22l20.72,40.22A9.64,9.64,0,0,1,184.41,297.36Z"/><path class="cls-5" d="M321,296.42l-95.9.95c-6.53.06-9.39-11-9.31-12.48s17.11-55.63,17.11-55.63a9.64,9.64,0,0,1,14.71-5.08l78.79,54.68A9.64,9.64,0,0,1,321,296.42Z"/><path d="M198.16,215.18c3.16,5.59,7.1,12.45,14.1,13.44a9.27,9.27,0,0,0,10.65-6c.64-1.53,1.05-3.31,2.14-4.59,2.26-2.66,6.45-1.84,9.41-1.2,1.88.42,2.68-2.48.8-2.89-2.83-.62-5.95-1.15-8.78-.26-3.12,1-4.67,3.43-5.77,6.34s-2.38,5.14-5.58,5.64a9.42,9.42,0,0,1-7.54-2.49c-3-2.6-4.93-6.13-6.84-9.52a1.5,1.5,0,0,0-2.59,1.51Z"/><path d="M229.71,243.9A20.42,20.42,0,0,1,241.49,249c2.84,2.58,5.33,6.06,9.68,5.31,3.77-.64,6.47-4.09,8.31-7.19,1.65-2.77,3.71-6.9,7.36-7.23,1.9-.17,1.92-3.17,0-3-3.91.35-6.48,3.19-8.5,6.31-1.86,2.9-3.65,7.1-7.31,8.08-2,.54-3.6-.61-5-1.94a43.09,43.09,0,0,0-4.33-4,23.72,23.72,0,0,0-12-4.49c-1.92-.17-1.91,2.83,0,3Z"/><path d="M146.31,257.91c-1.45,4.26,1.52,8,4.87,10.29,1.59,1.08,3.47,2.25,5.48,2.18,2.16-.08,3.57-1.87,5-3.22a12.36,12.36,0,0,1,5.55-3.38,5.49,5.49,0,0,1,2.9.1,30.66,30.66,0,0,0,2.9,1.22c3.83.88,5.5-3.1,7.82-5.23,1.42-1.31-.7-3.42-2.12-2.12a41.64,41.64,0,0,0-2.75,3.19c-1,1.15-1.79,1.54-3.23.85a9.06,9.06,0,0,0-5.09-1.1,11.23,11.23,0,0,0-4.85,1.76,26.53,26.53,0,0,0-4,3.31c-.57.53-1.2,1.36-2,1.57a3.56,3.56,0,0,1-2.44-.67c-2.79-1.56-6.44-4.28-5.19-8,.63-1.83-2.27-2.62-2.89-.8Z"/><path d="M156.21,257.34a7.31,7.31,0,0,0,3.65-5,1.53,1.53,0,0,0-.07-1,1.41,1.41,0,0,0-.62-.72,1.53,1.53,0,0,0-1.81.23,11.38,11.38,0,0,0-1.44,1.74,10.63,10.63,0,0,0-1,2,1.5,1.5,0,0,0,.15,1.15,1.52,1.52,0,0,0,.9.69,1.49,1.49,0,0,0,1.15-.15l.31-.24a1.45,1.45,0,0,0,.38-.66l0-.06-.15.36a9,9,0,0,1,1.18-2l-.23.31a9.16,9.16,0,0,1,.88-1L157,251.57a6,6,0,0,1-.34,1.17l.15-.36a6.07,6.07,0,0,1-.77,1.33l.23-.31a5.87,5.87,0,0,1-1.08,1.09l.31-.24a6.44,6.44,0,0,1-.78.5,1.52,1.52,0,0,0-.54,2.05,1.54,1.54,0,0,0,2.06.54Z"/><path d="M154.15,256.87a4.62,4.62,0,0,0,6.63-3.93,1.5,1.5,0,0,0-.93-1.37,1.46,1.46,0,0,0-1.63.31l-1,1.28a1.63,1.63,0,0,0-.44,1.06,1.5,1.5,0,0,0,2.56,1.07,4.42,4.42,0,0,0,.66-5.49,1.53,1.53,0,0,0-1.69-.69,6.29,6.29,0,0,0-4.09,5.63A1.5,1.5,0,0,0,155,256a1.58,1.58,0,0,0,1.52,0,7,7,0,0,0,4.07-5.79,1.51,1.51,0,0,0-2.26-1.3,2.81,2.81,0,0,0-1.14,3,3.33,3.33,0,0,0,1.62,2.18,3.39,3.39,0,0,0,3.29-.17,4.8,4.8,0,0,0,2-2.65,1.5,1.5,0,0,0-1.05-1.84,1.53,1.53,0,0,0-1.84,1c0,.07,0,.14-.07.21.08-.19.08-.21,0-.06s-.13.33-.23.39c.12-.15.13-.16,0,0l-.15.16-.16.15.13-.1a1,1,0,0,1-.37.23q.28-.12.06,0l-.21.06c.22,0,.25,0,.08,0h-.22c.24,0,.28,0,.13,0s-.11,0,0,0-.08-.07-.11-.08c.19.16.22.18.11.08a1.36,1.36,0,0,1-.12-.12c.14.19.17.23.08.1l-.09-.15c-.15-.22.08.35,0,0a.56.56,0,0,1,0-.12c0-.16,0-.1,0,.16,0-.11.06-.51,0,0,.07-.38-.14.2,0,0s.05-.09-.1.11c.11-.1.07-.08-.12.08l-2.25-1.3c0,.34.06-.26,0,.05,0,.11-.05.22-.08.33s-.13.63-.2.64l0-.1c0,.05,0,.1-.07.16l-.16.29c-.06.12-.25.54-.37.57l.1-.12-.15.17a2.73,2.73,0,0,1-.23.25,3.57,3.57,0,0,1-.5.45c.21-.13.07-.05-.06,0l-.24.15a5.08,5.08,0,0,1-.66.33l2.26,1.29a1.88,1.88,0,0,0,0-.33c.05.06,0,.32,0,0a4,4,0,0,1,.16-.59c0-.11.06-.38,0-.06a1,1,0,0,1,.12-.25,4,4,0,0,1,.32-.52c.15-.23-.12.13,0,0l.18-.21a1.87,1.87,0,0,1,.48-.45c-.15.07-.15.11,0,0l.23-.15L159,252c.28-.15-.26.1.05,0l-1.69-.69c0,.07.15.35.21.37s-.1-.28,0-.06a1.17,1.17,0,0,1,.06.2,1,1,0,0,0,0,.2c0-.05,0-.3,0-.08s0,.31,0,.47.06-.27,0-.08,0,.14-.05.2a1.66,1.66,0,0,1-.06.21c0,.18.13-.24,0-.07l-.21.36c-.1.16.18-.18,0-.05a1.62,1.62,0,0,0-.19.18l2.12,2.13,1-1.29-2.56-1.06a1.28,1.28,0,0,1,0,.19c0,.16,0,.12,0-.13,0,.05,0,.21-.06.27l-.06.18c.1-.22.11-.25,0-.11s-.08.16-.13.24l-.1.16q.21-.27.06-.09a1.8,1.8,0,0,1-.19.2l-.14.13q-.18.15.09-.06s-.24.16-.28.19l-.29.15c-.25.14.33-.09,0,0l-.31.09-.18,0c.23,0,.28,0,.16,0s-.21,0-.32,0h-.18c.23,0,.29,0,.17,0l-.31-.08c-.15-.05-.12,0,.1.05l-.17-.08a1.5,1.5,0,0,0-1.51,2.59Z"/><path d="M157.19,251a6.67,6.67,0,0,0-.05,3.6,1.43,1.43,0,0,0,.53.78,1.58,1.58,0,0,0,.91.33,2.07,2.07,0,0,0,.95-.19,2.28,2.28,0,0,0,.8-.53,2.58,2.58,0,0,0,.56-1,2.32,2.32,0,0,0,0-1.17,1.48,1.48,0,0,0-.69-.9,1.5,1.5,0,0,0-2.05.54l-.15.36a1.55,1.55,0,0,0,0,.8v0l-.06-.4a.38.38,0,0,1,0,.15l0-.4a.79.79,0,0,1,0,.22l.15-.36a.82.82,0,0,1-.12.2l.24-.3a1.29,1.29,0,0,1-.17.16l.31-.23-.2.11.36-.15-.18.06.39-.06h-.19l1.45,1.1c-.05-.2-.09-.41-.12-.61l.05.4a5.39,5.39,0,0,1,0-1.39l-.05.4a5.3,5.3,0,0,1,.18-.81,1.56,1.56,0,0,0-.15-1.16,1.59,1.59,0,0,0-.9-.69,1.57,1.57,0,0,0-1.16.16,1.62,1.62,0,0,0-.69.89Z"/><path d="M157.56,251.38c.05.41-.07,0,.12.12l.29.12,0,.07c-.05-.18-.06-.21,0-.07-.24.22.4-.49-.14.19,0,0-.23.06-.23.06s.16,0,.23,0c-.12-.09-.22-.19-.11,0v-1.51a4.06,4.06,0,0,0,.07,4.47c.59.83,2.07,1.12,2.59,0a4.07,4.07,0,0,0,.41-3.55,2.68,2.68,0,0,0-2.44-1.5,2.25,2.25,0,0,0-2.13,2.38,6,6,0,0,0,1.07,3,3.26,3.26,0,0,0,2.83,1.46,2.85,2.85,0,0,0,2.5-2.1,11.85,11.85,0,0,0,.33-6.9,1.52,1.52,0,0,0-2.74-.36c-1.07,1.9-.58,4,.42,5.81.89,1.62,2.53,4.1,4.68,2.8a4.64,4.64,0,0,0,1.65-2.43,16.07,16.07,0,0,0,.88-2.89,17.38,17.38,0,0,0,.07-6.31c-.29-1.69-3-1.26-3,.4a12.41,12.41,0,0,0,3.51,8.5,1.52,1.52,0,0,0,2.35-.31l1.74-2.31a1.52,1.52,0,0,0-.54-2,1.54,1.54,0,0,0-2.06.54l-1.73,2.31,2.36-.31a9.25,9.25,0,0,1-2.63-6.37l-2.95.4a13.45,13.45,0,0,1-.95,7.59c-.05.12-.37.59-.35.7,0-.11.55,0,.47,0,.48,0,.22.11.11-.12-.26-.53-.72-1-1-1.52-.49-.85-1-2-.48-2.88l-2.74-.36A8.7,8.7,0,0,1,160,253a6.18,6.18,0,0,0-.23.73c0,.06,0,.12-.09.17a.27.27,0,0,1,.25-.15c.18-.17.16.24-.06-.06l-.16-.21c-.24-.3-.22-.72-.4-1s.33-.15-.48.29a.49.49,0,0,1-.62.06l0,0a.4.4,0,0,1-.11-.19v.07s-.24.68-.28.76h2.59a1.2,1.2,0,0,1-.07-1.45,2,2,0,0,0-.91-2.55,2.85,2.85,0,0,0-4.18,1.05,2.82,2.82,0,1,0,5.35.95,1.54,1.54,0,0,0-1.5-1.5,1.51,1.51,0,0,0-1.5,1.5Z"/><path d="M162,250.1a3.69,3.69,0,0,0-3.4-2,5.89,5.89,0,0,0-3.62,1.77,14.61,14.61,0,0,0-4.09,6.52,1.52,1.52,0,0,0,.69,1.69,1.57,1.57,0,0,0,1.82-.23c3.31-2.67,6.64-5.45,8.78-9.19a1.52,1.52,0,0,0-1.7-2.21,8.06,8.06,0,0,0-5.62,9.28,1.51,1.51,0,0,0,2.2.89,11.49,11.49,0,0,0,5.34-7l-2.89-.8a45.39,45.39,0,0,0-1,11,1.51,1.51,0,0,0,1.9,1.44,11.48,11.48,0,0,0,7.94-9.49c.15-1.26.07-2.69-1.16-3.41a3,3,0,0,0-3.2.35,12.29,12.29,0,0,0-2.62,2.9,28.76,28.76,0,0,0-2.14,3.31,1.52,1.52,0,0,0,2.06,2.05c2.41-1.08,2.21-4.95,0-6.14a3.6,3.6,0,0,0-4.17.82c-1.31,1.29-1.53,3.14-1.64,4.88-.09,1.4,1.65,1.85,2.56,1.06a9.41,9.41,0,0,0,3.18-7.28,1.52,1.52,0,0,0-2.56-1.06c-1.38,1.16-3.23,4.55-1,5.85a1.75,1.75,0,0,0,2.64-1.45,1.65,1.65,0,0,0-2.47-1.58c-1.72.89-.2,3.48,1.51,2.59l.08,0-1.15.15h.06l-.66-.38,0,0-.38-.66a1.23,1.23,0,0,1,.1-.73l.53-.54-.07,0,.76-.2h.16l.67.38c.31.29.07.52.25.16.07-.15.1-.32.17-.47a3.23,3.23,0,0,1,.89-1.06l-2.56-1.06a6.51,6.51,0,0,1-2.3,5.16l2.56,1.06A5,5,0,0,1,159,254a1.47,1.47,0,0,1,.57-.51,1.94,1.94,0,0,1,.2-.05c-.06,0,.17,0,0-.05.22.08,0-.1.13.1-.13-.18,0,0,0,.08s0-.16,0,.1c0,.07.09.43,0,.16,0,0,0,.5,0,.17,0,0-.14.45,0,.16-.08.21.12,0-.08.13.22-.15-.11,0-.17.06l2.06,2a26,26,0,0,1,3.21-4.63,2.82,2.82,0,0,1,.72-.66A1.44,1.44,0,0,1,166,251c0,.1-.81-.26-.59-.34,0,0-.23,1.74-.28,1.9a8.41,8.41,0,0,1-5.54,5.79l1.9,1.45a42.28,42.28,0,0,1,.94-10.16c.41-1.88-2.4-2.68-2.89-.8a8.48,8.48,0,0,1-4,5.22l2.2.9a5,5,0,0,1,3.53-5.58l-1.69-2.21c-2,3.51-5.21,6.08-8.31,8.59l2.51,1.46a11.46,11.46,0,0,1,2.47-4.36c.59-.65,2.42-2.64,3.15-1.24.89,1.72,3.48.2,2.59-1.51Z"/><path d="M151,254.08a10.9,10.9,0,0,0,6.38,8.37c2.51,1.12,5.3.71,6.84-1.79,2.55-4.14.83-10.44-4.31-11.6-5.68-1.28-10.25,4.42-8.53,9.72l6.15-6.15c-6-1.91-9.86,3.46-9.49,9h10a36.24,36.24,0,0,0-1.14-6.29c-1.76-6.2-11.14-3.6-9.64,2.66,1.1,4.6,3,11.13,8.41,12,2.75.43,4.79-.73,6.57-2.75.84-.95,3.41-6.19,4.58-6.28,1.76-.14,3.95,2.68,6.22,2.63a5.92,5.92,0,0,0,4.74-2.86c3-4.73.07-9.85-2.84-13.66s-2.68-8.52-7.67-10.46A11,11,0,0,0,155,240c-2.73,3.15-5.51,9-3.31,13,2.83,5.15,9.3,2.4,13.72,1.36,6.26-1.48,3.61-11.13-2.66-9.65l-3.94.94-1.58.37c-1.15.24-1,.26.3.08l3,2.3-.38-.9.5,3.85c.21-1.22.67-4,1.83-4.76,1.57-1,.84-.14,1.51,1.58a17.54,17.54,0,0,0,2.6,4.42l1.63,2.06c.35,1.43.75,1.56,1.22.38l4.87-1.29c-1.83-.43-3.46-2-5.35-2.46a9.2,9.2,0,0,0-6,.42,11.45,11.45,0,0,0-4.22,3.21c-1.32,1.52-2.6,4.92-4.36,5.91l3.85-.5s-1.16-3.89-1.42-5L147.22,258a16.1,16.1,0,0,1,.78,3.63c.68,6.27,10.45,6.51,10,0q.3-3.19-3.17.67c3.55,1.13,7.31-2.58,6.15-6.15l-5.43-.51,6.84-1.79c-1.44-.64-1.56-.85-1.79-2.4-.93-6.34-10.57-3.65-9.64,2.66Z"/><path d="M158.16,258.21h1.37a3.88,3.88,0,0,0,1.93-.43,3.77,3.77,0,0,0,1.61-1,5.59,5.59,0,0,0,1.46-3.53l-.18-1.33a4.94,4.94,0,0,0-1.28-2.21,5.19,5.19,0,0,0-3.54-1.46h-1.37a3.77,3.77,0,0,0-1.93.43,3.69,3.69,0,0,0-1.61,1,3.75,3.75,0,0,0-1,1.61,3.68,3.68,0,0,0-.43,1.93l.17,1.33a5,5,0,0,0,1.29,2.2,5.2,5.2,0,0,0,3.54,1.47Z"/><path d="M152.67,253l-.23.45a5.64,5.64,0,0,0-.5,3.86,3.77,3.77,0,0,0,.89,1.7,3.86,3.86,0,0,0,1.4,1.29l1.2.5a5,5,0,0,0,2.66,0l1.19-.5a5.17,5.17,0,0,0,1.8-1.8l.23-.46a4.82,4.82,0,0,0-.4-5.55,3.86,3.86,0,0,0-1.4-1.29l-1.19-.5a5,5,0,0,0-2.66,0l-1.2.5a5.06,5.06,0,0,0-1.79,1.8Z"/><path d="M155.86,262.56c6.44,0,6.45-10,0-10s-6.44,10,0,10Z"/><path class="cls-7" d="M148.19,258.72c.26,3.72,2,6.34,4.87,8.63,3.06,2.43,7,1.56,8.36-2.2.67-1.81,2.85-1.49,4.37-2a8.78,8.78,0,0,0,4.36-3.29,9.37,9.37,0,0,0,.87-9.26c-1.76-3.81-5.22-4.76-9-3.33a21.88,21.88,0,0,0-5.53,3.31c-1.07.83-2.62,3.14-3.74,3.53l6.15,3.49c0-.15,2.88-3.66,3.38-4.32L164,251c.41-.55.83-1.09,1.25-1.63s.52-.67.18-.13l-3.85-.51c-1.13-.52.28,1.8.49,2.33a44.51,44.51,0,0,0,1.93,4.22,46.38,46.38,0,0,0,4.83,7.14c3,3.84,8.08.17,8.54-3.54.54-4.47-4.28-6.6-8-6.64-4.27,0-10.05,2.17-12.93,5.46l-1.11.8c1.21,1.48,2,1.62,2.47.42.8-.57,1.35-2.23,1.9-3.12,1-1.57,3.72-4.3,4.07-6,1.16-.88.91-1.32-.77-1.32-1.68-.9-2-.61-.84.85.16,1,1.15,2.3,1.61,3.24l3.54,7.12c2.87,5.76,11.5.7,8.64-5-1.72-3.45-3.41-6.92-5.15-10.36-1.43-2.82-3.14-5-6.54-5.33-6.48-.57-10.34,7.29-13.19,11.86-3.26,5.22-6.81,12.23-.11,16.6,2.93,1.92,6.5,1.5,9.41-.23,1.58-.93,2.91-2.25,4.46-3.22.43-.27,4-2.1,4-2l-1.47-3.54-.06.54,8.53-3.53c-2.6-3.29-4.06-6.87-5.51-10.74s-5.13-6.39-9.32-4.53c-3.44,1.52-5.65,5.81-7.83,8.7-2.74,3.63-5.12,6.72-4,11.46a5,5,0,0,0,6.15,3.49c4.34-1.51,6.75-6.76,11.34-7.47l-3.85-.51c-2-1.43.18-2.1-2.54-1.66a9.92,9.92,0,0,0-3.58,1.62,12.94,12.94,0,0,0-5,6.79l8.35-2.21a16.37,16.37,0,0,1-1.94-1.56c-.46-6.39-10.46-6.44-10,0Z"/><path class="cls-7" d="M201.84,214.6c1.95,5.42,6.39,10.57,12.49,11.24a5.9,5.9,0,0,0,6.22-3c1.64-3,.48-7.07,4.42-8.27a5.06,5.06,0,0,0,1.19-9.13c-3.38-2.1-7.06-3.41-10.94-1.77s-6.58,4.76-10.66,6.14l6.33,4.82c.1-1.86,3.6-5.57,4.66-7.15a17.86,17.86,0,0,1,2.18-2.86l1-1q2.68-1-.24-.77l-2.3-3c.59,1.69,1.7,2.89,2.39,4.45s.51,3.6,1,5.27c1.88,6.14,11.53,3.52,9.65-2.66-.63-2-.43-4.16-1.27-6.16a34.49,34.49,0,0,0-2.4-4.16c-2.1-3.57-5.74-4.31-9.49-2.84s-6.47,4.73-8.77,8c-2.67,3.85-6.16,8-6.41,12.77a5,5,0,0,0,6.33,4.83,34,34,0,0,0,7.57-3.49c2.4-1.56,3.47-3.67,6.33-1.9l1.19-9.14a14.46,14.46,0,0,0-7.37,4.77A12.67,12.67,0,0,0,213,213c-.66,1.61-.54,4-1.48,5.4l4.32-2.48c-2,.14-3.78-2.3-4.36-3.93-2.16-6-11.83-3.41-9.64,2.66Z"/><path class="cls-7" d="M236.41,241.94c3.68.89,5.33,1.62,7.49,4.7,1.79,2.55,4.92,5.1,8.29,4.16,2.71-.77,5.5-4.85,5.16-7.73.07.61-2,1.18-.06.58a6.32,6.32,0,0,0,2.58-1.65,6.06,6.06,0,0,0,1.87-4.82c-.24-4.25-4.22-4.41-6.51-7-2.47-2.8-4.08-4.55-7.82-5.61-3.14-.89-7.77-2.45-10.65-.23s-1,6.14-3.25,8.34l8.36,2.2c-.11-.55-.27-1.61.15-1.73,6.17-1.77,3.55-11.43-2.66-9.64-6.46,1.86-8.37,7.95-7.13,14,.77,3.79,5.82,4.7,8.35,2.21a11.65,11.65,0,0,0,3.07-4.85,15.12,15.12,0,0,0,.47-2.2c.06-.35.84-3.21,0-1.91l-4.32,2.47a13.53,13.53,0,0,1,4.35.79,3.76,3.76,0,0,1,2.75,1.62,25.59,25.59,0,0,0,3.3,3.45c1.29.93,2.74,1.45,4,2.36l-2.47-4.31,0,.93,1.47-3.54c1-.92-1.43.49-1.66.62a8.32,8.32,0,0,0-2.5,2.37c-.7,1-1,4.32-1.68,4.88l3.53-1.47c1.55.77,1.91.68,1.1-.26a20.51,20.51,0,0,0-1.14-1.77,14,14,0,0,0-3.34-3.32,24.51,24.51,0,0,0-8.41-3.32c-6.26-1.5-8.92,8.14-2.66,9.64Z"/><path d="M418.4,458c6.25-.43,15.8,1.19,19.47-5,5.2-8.8,9.18-18.54,13.91-27.62s9.55-18,14.53-26.93c2.48-4.42,5.14-8.26,10.42-9.45,4.75-1.06,9.78-.22,14.49.65,1.57.29,2.24-2.12.66-2.41-6.47-1.2-13.9-2.41-20,.89-7.1,3.85-10.58,14.08-14.21,20.79q-7.51,13.86-14.62,28c-2.24,4.45-4.08,9.53-6.79,13.71-3.56,5.51-12,4.54-17.89,4.94-1.6.11-1.61,2.61,0,2.5Z"/><path d="M532.78,350.36c-13.25-13.65-32.47,14.22-36.16,24.65-3.61,10.18-3.93,21.41-4.23,32.1a316.07,316.07,0,0,0,1.32,38.43c.15,1.59,2.65,1.6,2.5,0-1.78-18.91-2.58-38.61,0-57.48,1.32-9.77,4.48-18.47,10.94-26,5.12-6,15.81-18.23,23.89-9.92,1.12,1.16,2.89-.61,1.76-1.76Z"/><path d="M465,402.91c6.41,13.86,12.78,27.73,19.22,41.58,1.95,4.2,4,8.21,8.6,9.9s9.78.79,14.46-.11c1.58-.31.91-2.72-.66-2.41-5.08,1-11.73,2.19-16-1.64s-6.06-10.94-8.33-15.85L467.2,401.65c-.67-1.46-2.83-.19-2.16,1.26Z"/><path d="M468.54,403.46a19.15,19.15,0,0,0,19.26-6.77c1-1.25-.76-3-1.76-1.77a16.72,16.72,0,0,1-16.84,6.13c-1.56-.34-2.23,2.07-.66,2.41Z"/><circle class="cls-8" cx="509.86" cy="391.42" r="10"/><path d="M682.29,631.94c34.27-23.11,42.71-73.81,83.2-89,1.49-.56.84-3-.67-2.41-41.1,15.44-49.23,66-83.79,89.27-1.33.9-.08,3.06,1.26,2.16Z"/><path d="M701.94,609.9c-.88-7.55-7.7-11.55-11.51-17.6a34.11,34.11,0,0,1-3.88-27.07l-1.83.74c6.1,4.69,12.24,9.94,15.7,17,4.18,8.48,3,17.94-.18,26.52-.56,1.51,1.86,2.17,2.41.67,3.23-8.72,4.4-18.34.58-27.07-3.54-8.09-10.4-14-17.25-19.25a1.26,1.26,0,0,0-1.84.75A36.7,36.7,0,0,0,685.43,588a34.84,34.84,0,0,0,5.2,8.92c3.28,4.07,8.16,7.48,8.81,13,.18,1.58,2.68,1.6,2.5,0Z"/><path d="M724.73,579.89c-3.36-13.57-13.05-29.14-4.26-42.6l-2,.25a26.71,26.71,0,0,1,2.64,38.3c-1,1.2.71,3,1.77,1.76a29.22,29.22,0,0,0-2.65-41.83,1.27,1.27,0,0,0-2,.26c-9.28,14.2.46,30.21,4,44.52a1.25,1.25,0,0,0,2.41-.66Z"/><path d="M747,551.37c3.17-5.56,3.08-11.56,3.59-17.76.71-8.81,4.57-16.16,13.43-19l-1.53-1.54c-1.14,7.7-.73,17.95-7.16,23.27-4.05,3.35-8.3,5.92-9,11.56-.19,1.6,2.31,1.58,2.5,0,.8-7,9.45-8.82,12.37-14.64,2.83-5.62,2.74-13.4,3.65-19.52.13-.88-.54-1.86-1.54-1.54a21,21,0,0,0-13.42,12c-3.35,8.33-.55,17.88-5.09,25.84a1.25,1.25,0,0,0,2.15,1.26Z"/><path d="M691.28,624.38c16.43-1.6,44.08,4.71,50-17a1.26,1.26,0,0,0-.87-1.54c-6.92-1-13.78,3.16-20,5.67l-24.16,9.73c-1.47.59-.83,3,.66,2.41l20.59-8.29c6.4-2.58,15.19-8.09,22.25-7.11l-.87-1.54c-5.51,20.16-32.41,13.73-47.61,15.21-1.59.15-1.6,2.65,0,2.5Z"/><path d="M718.81,590.27c6.9,2.11,9.83-5.3,13.92-9.22a31.66,31.66,0,0,1,23-8.68c4,.17,3.59.21,1.14,2.68a63,63,0,0,1-4.63,4.31,55,55,0,0,1-35.73,12.4,1.25,1.25,0,0,0,0,2.5,57.88,57.88,0,0,0,26.63-6.06,56.9,56.9,0,0,0,11.47-7.59c1.84-1.56,6.91-5.14,7-7.9.26-5.41-13.8-2.33-16.61-1.51a34.43,34.43,0,0,0-11.57,5.92c-3.5,2.74-9,12.25-14,10.74-1.54-.48-2.2,1.94-.67,2.41Z"/><path d="M757.18,548.55c7.94-.78,15.73,2.63,23.54,0,6.48-2.17,11.55-7.14,15.87-12.24a1.26,1.26,0,0,0-1.22-2.08l-23.45,4.63c-5.1,1-11.51,1.23-15.07,5.52-1,1.23.74,3,1.77,1.77,3.69-4.45,12.44-4.58,17.72-5.62L796,536.65l-1.21-2.09c-4.36,5.14-9.47,10.22-16.18,12-7,1.88-14.31-1.23-21.46-.53-1.58.16-1.6,2.66,0,2.5Z"/><path d="M758.26,545.11a57,57,0,0,1,24.45-14,1.25,1.25,0,0,0-.66-2.41,59.58,59.58,0,0,0-25.55,14.69c-1.16,1.12.61,2.88,1.76,1.76Z"/><path d="M754.69,526.92,749.21,541c-.59,1.5,1.83,2.15,2.41.66l5.48-14.08c.59-1.5-1.83-2.15-2.41-.66Z"/><path d="M762.07,546a56.53,56.53,0,0,1,13.84-1.39,1.25,1.25,0,0,0,0-2.5,59.55,59.55,0,0,0-14.51,1.47c-1.57.36-.9,2.77.67,2.42Z"/><path d="M724.06,571.46c.72-3.14,2.76-6.07,2.8-9.34s-3.57-6.35-2.58-9.31c.51-1.53-1.9-2.18-2.41-.66-.86,2.57.4,4.43,1.52,6.7,2.12,4.27-.79,7.8-1.74,11.95-.36,1.56,2.05,2.23,2.41.66Z"/><path d="M725.67,589.36a59.93,59.93,0,0,0,12.9-7.8c1.26-1-.52-2.75-1.77-1.76a58,58,0,0,1-12.39,7.4c-1.47.65-.2,2.8,1.26,2.16Z"/><path d="M693.66,585.61a30.61,30.61,0,0,1,8.62,17.54c.22,1.58,2.63.91,2.41-.67a32.88,32.88,0,0,0-9.26-18.64c-1.14-1.15-2.9.62-1.77,1.77Z"/><path d="M706.19,620.7a71.92,71.92,0,0,0,19.76-.81c1.58-.28.91-2.69-.66-2.41a69.48,69.48,0,0,1-19.1.72c-1.6-.16-1.59,2.34,0,2.5Z"/><path class="cls-3" d="M284.86,635.42c0,1.68-.06,3.35-.17,5H280c-.26-37-29.75-67-66.1-67s-65.84,30-66.1,67H142c-.11-1.65-.17-3.32-.17-5,0-40.32,32-73,71.5-73S284.86,595.1,284.86,635.42Z"/><path class="cls-3" d="M280,640.42h-4.84c-3.84-31-29.79-55-61.22-55s-57.38,24-61.22,55h-4.92c.26-37,29.75-67,66.1-67S279.7,603.37,280,640.42Z"/><path class="cls-3" d="M275.12,640.42H269c-6.4-25.31-28.92-44-55.7-44s-49.31,18.69-55.71,44h-4.9c3.84-31,29.79-55,61.22-55S271.28,609.39,275.12,640.42Z"/><path class="cls-3" d="M269,640.42H262.1a53.06,53.06,0,0,0-98.24,0h-6.28c6.4-25.31,28.92-44,55.71-44S262.59,615.11,269,640.42Z"/><path class="cls-9" d="M148.59,556.6a14.2,14.2,0,0,1,12.67,7,1.28,1.28,0,0,0,2,.25c2.57-2.38,3.45-5.29,4.55-8.51,2.14-6.31,6.33-8.94,12.37-11.27,1.49-.57.84-3-.66-2.41-4,1.54-8.24,3.18-11,6.6-3.37,4.13-3,10.15-7,13.82l2,.25a16.82,16.82,0,0,0-14.83-8.27,1.25,1.25,0,0,0,0,2.5Z"/><path class="cls-9" d="M178.87,524.6A16,16,0,0,1,193.66,531c.49.67,1.72.94,2.16,0,2.62-5.72,6-12.45,13.34-12.08,1.61.08,1.6-2.42,0-2.5-8.24-.41-12.46,6.7-15.5,13.32h2.16a18.47,18.47,0,0,0-16.95-7.65c-1.59.15-1.6,2.65,0,2.5Z"/><circle class="cls-10" cx="223.49" cy="401.25" r="59.75"/><path d="M226,343.34c-1.09,5.41-3,18.19,5.46,19.18,3.95.47,8.13-3.16,12-3.83,6.49-1.13,13.15.32,19.48,1.68,1.57.33,2.24-2.08.67-2.41-6.54-1.4-13.29-2.8-20-1.8-3.21.49-5.78,2.35-8.78,3C225,361.2,227.38,349,228.4,344c.31-1.57-2.1-2.25-2.42-.67Z"/><path d="M275.74,373.75l-23.89,2.31c-6.57.63-13.9.46-20.31,2.06-4.65,1.17-5.6,5.89-6.55,10-1.06,4.58-3.36,12.28-1.38,16.82,1.71,3.93,5.8,2.95,9.25,3.14,9.32.52,12.76,10.56,13.07,18.43.29,7.35-3.1,26,10.15,23.76,1.58-.27.91-2.68-.67-2.41l-4.92-1.57a7.53,7.53,0,0,1-2.1-4.56,18.59,18.59,0,0,1-.31-3.79c0-2.61.28-5.21.34-7.82.12-4.71-.11-9.62-1.95-14a18.75,18.75,0,0,0-5.52-7.44c-3.34-2.64-6.11-2.5-10-3-2.38-.31-1.33.74-3.65-1.89-2-2.28-1.76-2.31-1.49-5.1a74.29,74.29,0,0,1,1.45-9c.52-2.38,1-6.39,2.86-8.07,2.14-1.91,7.62-1.64,10.31-1.89l35.35-3.42c1.58-.15,1.6-2.65,0-2.5Z"/><path d="M193.53,351.5c-1.46,11.28.88,20.91,4.26,31.56,1.09,3.41,3.63,10.2-1.57,11.37-2.33.52-4.75-.59-7.1-.43-3.29.22-5.33,1.9-6.78,4.78-2.89,5.73-5.7,14.5-.56,19.86,3.65,3.8,9.77,2.89,10.09,9.76.28,6-2,13.07-3,19-.26,1.57,2.15,2.25,2.41.66.94-5.7,2-11.39,2.8-17.12.41-3,.67-6.4-1.45-8.88-3.57-4.17-9.56-2.6-11-9.26-1.24-5.87,2.45-15.93,9-16.24,3.17-.16,6.14,1.36,9.07-.68s2.4-5.37,1.82-8.41c-1.05-5.54-3.53-10.68-4.78-16.17A56.15,56.15,0,0,1,196,351.5c.21-1.59-2.3-1.57-2.5,0Z"/><path d="M473.12,646.54c-12.24-11.33-22.95-24.76-27.27-41.17-4.44-16.92.16-35.35,8.67-50.37,4.7-8.3,12.81-10.79,21.82-11.45,9.16-.68,18.14.48,25.32,6.7a30.46,30.46,0,0,1,10.24,23.33c-.09,8.76-4.24,16.33-9.23,23.27-11.11,15.45-21.53,30.51-29.28,48-.65,1.46,1.51,2.73,2.16,1.26a209.19,209.19,0,0,1,14.78-27.72c5.35-8.4,11.89-15.94,17.26-24.31,9.09-14.17,9.52-33.09-3.61-45.1-6.19-5.67-13.91-8.09-22.21-8.15-7.73-.06-16.75.7-23.15,5.49s-9.06,13.11-11.82,20.3c-3.54,9.26-6,18.62-5.19,28.6,1.67,21.29,14.54,39,29.74,53.08,1.18,1.09,2.95-.67,1.77-1.77Z"/><circle class="cls-2" cx="478.36" cy="576.29" r="14.59"/></g></g></svg>