<svg xmlns="http://www.w3.org/2000/svg" viewBox="0 0 455 318.18"><defs><style>.cls-1{fill:#9ac1ba;}.cls-2{fill:#8db2ab;}.cls-3{fill:#6ba096;}.cls-4{fill:#c5e2dd;}.cls-5{fill:#87b648;}.cls-6{font-size:141.84px;fill:#08473b;font-family:Broadway;}.cls-7{font-size:65.01px;}</style></defs><g id="Layer_2" data-name="Layer 2"><g id="Layer_1-2" data-name="Layer 1"><path class="cls-1" d="M14.85,8A285.21,285.21,0,0,1,142.14,6.42q.15,2.74.3,5.52c-17.41-2.71-24.51,5-27.8,22.21-4.51,23.56-.74,48.61-12.43,70.84L84.72,90.09C80.68,78.9,74.43,69.63,62.86,65c-.62-3.16-.53-6.94-5.37-6.62a2,2,0,0,0-1.37,1.37c-.31,4.82,3.45,4.76,6.63,5.36-.85,15.79,11.63,22.33,21.4,30.75,4.21,5.85,8,12,12.67,17.51,22,26,22.09,25.89-9.84,35.52a19,19,0,0,1-2.13.4,100.34,100.34,0,0,0-33.36,12c12.73,2.08,22.43,1.16,31.46-4.45l24.21-4.22c15.51,15.37,14.6,34.38,15.09,54.45.25,10.26.65,19.92-2,29.75l-34,8.37L107,247.3c9.47,3.93,12.89,8.58,12.44,21-.53,14.48-5.06,29.85.89,44.43-25.14-2.42-46.39-13.2-64.43-30.45-11-10.51-21.53-21.52-32.28-32.3l.13.12c-.42-6.27-4-10.62-8.67-14.31A2.58,2.58,0,0,0,14,233C11.35,217.88.07,205.35.7,189.19,3.06,128.61-8.13,67,14.85,8Z"/><path class="cls-2" d="M217,35.75c-19.55.26-26.62,9.32-21.66,28.66a35.6,35.6,0,0,1-1.06,19.42c-5.72,16.52-4,31.28,6.66,45.17,7.69,10,5.54,25,16.69,33.27-5,13.93-5.16,30-17.62,40.66-7.62-.25-11-7.68-17.27-10.2-5-15.58-18.25-24.81-29.63-34.36-16.42-13.78-20.36-26.82-11.42-47,6.12-13.81,14.22-29.43,5.84-46-10.28-8.14-.43-13.81,2.41-20.45,5.44-12.71,9.62-25.3-7.45-33q-.15-2.78-.3-5.52C170.43,7.67,195,18.3,217,35.75Z"/><path class="cls-3" d="M142.44,11.94c17.07,7.7,12.89,20.29,7.45,33-2.84,6.64-12.69,12.31-2.42,20.45-2.85,10.41-6,20.74-8.44,31.25s-3.84,25.19-13.52,27.66c-10.42,2.66-16.69-11-23.3-19.31,11.69-22.23,7.92-47.28,12.43-70.84C117.93,17,125,9.23,142.44,11.94Z"/><path class="cls-2" d="M191.16,308c-23.19,8-46.38,15.8-70.85,4.78-6-14.58-1.42-29.95-.89-44.43.45-12.43-3-17.08-12.44-21,16.67-.44,32.76-3.92,48.57-9,.63,8.94-1,17.13,10,23.72,9.31,5.6,13.65,17.57-.53,26.09-4.13,2.48-10.22,4.35-7.61,11.07,2.4,6.19,8.5,4,13.27,4.54C177.63,304.52,185.37,301.53,191.16,308Z"/><path class="cls-2" d="M177,198.14,187.34,211c-18.79,17.86-43.71,19.81-67.07,25.83,2.63-9.83,2.23-19.49,2-29.75-.49-20.07.42-39.08-15.09-54.44,10.15-8.88,17.75-7.07,27.29,2.83C148.36,169.89,159.23,187.51,177,198.14Z"/><path class="cls-4" d="M177,198.14c-17.76-10.63-28.63-28.25-42.54-42.7-9.54-9.9-17.14-11.71-27.29-2.83q-12.1,2.1-24.18,4.19c.65-2.53,1.26-5,1.87-7.53a19,19,0,0,0,2.13-.4c31.93-9.63,31.85-9.57,9.84-35.52-4.64-5.48-8.46-11.66-12.66-17.51.19-1.92.37-3.84.56-5.75L102.21,105c6.61,8.26,12.88,22,23.3,19.31,9.68-2.47,11.07-17.08,13.52-27.66s5.59-20.84,8.44-31.25c8.39,16.55.29,32.17-5.83,46-8.94,20.18-5,33.22,11.42,47,11.38,9.55,24.63,18.78,29.63,34.36Z"/><path class="cls-4" d="M120.27,236.8c23.36-6,48.28-8,67.07-25.83,5.38,3.15,3.17,8.51,3.83,13-10.32,8.63-23.95,9-35.62,14.31-15.81,5.06-31.9,8.54-48.57,9l-20.7-2.12Z"/><path class="cls-2" d="M84.72,90.09c-.19,1.91-.37,3.83-.56,5.75-9.78-8.42-22.26-15-21.41-30.75l.11-.11C74.43,69.63,80.68,78.9,84.72,90.09Z"/><path class="cls-2" d="M84.85,149.27c-.61,2.5-1.22,5-1.87,7.53-9.06,5.63-18.76,6.55-31.49,4.47A100.34,100.34,0,0,1,84.85,149.27Z"/><path class="cls-5" d="M62.75,65.09c-3.18-.6-6.94-.54-6.63-5.36a2,2,0,0,1,1.37-1.37c4.84-.32,4.75,3.46,5.37,6.62Z"/><path class="cls-3" d="M155.55,238.31c11.67-5.27,25.3-5.68,35.62-14.31,22.31.76,30.46,21.26,44.6,33,25.46,21.07,24.38,23.7-7.25,38.18-12,5.5-24,11.32-37.36,12.82-5.79-6.44-13.53-3.45-20.49-4.24-4.77-.55-10.87,1.65-13.27-4.54-2.61-6.72,3.48-8.59,7.61-11.07,14.18-8.52,9.84-20.49.53-26.09C154.59,255.44,156.18,247.25,155.55,238.31Z"/><text class="cls-6" transform="translate(223.54 154.53)">IR.<tspan class="cls-7"><tspan x="0" y="78.01">UX|UI</tspan></tspan></text></g></g></svg>