<svg xmlns="http://www.w3.org/2000/svg" viewBox="0 0 350 242.83"><defs><style>.cls-1{fill:#72ab46;}.cls-2{fill:#8aba44;}.cls-3{fill:#e8f6d9;}.cls-4{fill:#7cb145;}.cls-5{fill:#7eb147;}.cls-6{fill:#bde390;}.cls-7{fill:#87b648;}.cls-8{fill:#94be48;}.cls-9{font-size:108.25px;fill:#3e5b25;font-family:Broadway;}.cls-10{font-size:49.61px;}</style></defs><g id="Layer_2" data-name="Layer 2"><g id="Layer_1-2" data-name="Layer 1"><path class="cls-1" d="M14.08,6.11A217.8,217.8,0,0,1,111.23,4.9c.08,1.4.15,2.8.23,4.21C98.18,7,92.75,13,90.24,26.06c-3.44,18-.56,37.1-9.49,54.07q-6.66-5.7-13.35-11.38c-3.08-8.54-7.84-15.61-16.68-19.16-.47-2.41-.4-5.3-4.09-5.05a1.53,1.53,0,0,0-1.05,1c-.24,3.69,2.63,3.64,5.06,4.09C50,61.73,59.52,66.72,67,73.14c3.2,4.47,6.12,9.18,9.66,13.36,16.8,19.82,16.86,19.76-7.51,27.11a14.48,14.48,0,0,1-1.62.31,76.55,76.55,0,0,0-25.46,9.16c9.71,1.58,17.11.88,24-3.39l18.49-3.23C96.37,128.2,95.68,142.7,96.05,158c.19,7.83.5,15.2-1.51,22.71L68.6,187.11l15.8,1.62c7.23,3,9.83,6.55,9.49,16-.4,11-3.86,22.78.68,33.91-19.19-1.85-35.4-10.08-49.17-23.24C37,207.42,29,199,20.76,190.79l.1.09c-.32-4.78-3.05-8.11-6.62-10.92a2,2,0,0,0-.81-2.11c-2-11.57-10.63-21.13-10.15-33.47C5.09,98.15-3.45,51.12,14.08,6.11Z"/><path class="cls-2" d="M168.32,27.28c-14.92.2-20.31,7.12-16.53,21.88A27.22,27.22,0,0,1,151,64c-4.37,12.61-3.08,23.87,5.08,34.47,5.86,7.62,4.22,19.06,12.73,25.39-3.82,10.63-3.93,22.86-13.44,31-5.82-.18-8.39-5.86-13.18-7.78-3.82-11.89-13.93-18.94-22.62-26.22C107,110.35,104,100.4,110.85,85c4.67-10.54,10.85-22.45,4.45-35.08-7.84-6.22-.32-10.54,1.85-15.61,4.15-9.7,7.34-19.31-5.69-25.19-.08-1.41-.15-2.81-.23-4.21C132.82,5.86,151.59,14,168.32,27.28Z"/><path class="cls-3" d="M14.08,6.11c-17.53,45-9,92-10.8,138.27-.48,12.34,8.13,21.9,10.15,33.47C4.44,175,0,169.09,0,159.42.14,113.16,0,66.9.14,20.65.16,11.72,1.89,3.73,14.08,6.11Z"/><path class="cls-3" d="M14.24,180c3.57,2.81,6.3,6.14,6.62,10.92C12.4,191,13.44,185.42,14.24,180Z"/><path class="cls-4" d="M111.46,9.11c13,5.88,9.84,15.49,5.69,25.19-2.17,5.07-9.69,9.39-1.85,15.6-2.17,8-4.59,15.83-6.45,23.85S105.93,93,98.54,94.86c-8,2-12.74-8.43-17.79-14.73,8.93-17,6-36.09,9.49-54.07C92.75,13,98.18,7,111.46,9.11Z"/><path class="cls-5" d="M148.64,235c-17.7,6.07-35.4,12.06-54.07,3.65-4.54-11.13-1.08-22.86-.68-33.91.34-9.49-2.26-13-9.49-16,12.72-.34,25-3,37.06-6.86.49,6.83-.73,13.08,7.63,18.11,7.1,4.27,10.41,13.41-.41,19.91-3.15,1.89-7.8,3.32-5.81,8.45,1.84,4.72,6.5,3,10.14,3.46C138.32,232.41,144.22,230.13,148.64,235Z"/><path class="cls-5" d="M137.82,151.21l7.9,9.8c-14.34,13.63-33.36,15.12-51.18,19.72,2-7.51,1.7-14.88,1.51-22.71-.37-15.32.32-29.82-11.51-41.55,7.74-6.78,13.54-5.4,20.82,2.16C116,129.66,124.28,143.1,137.82,151.21Z"/><path class="cls-6" d="M137.82,151.21c-13.54-8.11-21.84-21.55-32.46-32.58-7.28-7.56-13.08-8.94-20.82-2.16q-9.24,1.61-18.46,3.19c.49-1.92,1-3.83,1.43-5.74a14.48,14.48,0,0,0,1.62-.31c24.37-7.35,24.31-7.29,7.51-27.11C73.1,82.32,70.18,77.61,67,73.14l.42-4.39q6.69,5.69,13.35,11.38c5,6.3,9.84,16.76,17.79,14.73,7.39-1.88,8.45-13,10.31-21.11s4.28-15.9,6.45-23.85c6.4,12.64.22,24.55-4.45,35.09-6.82,15.41-3.81,25.36,8.71,35.88,8.69,7.28,18.8,14.33,22.62,26.22Z"/><path class="cls-6" d="M94.54,180.73c17.82-4.6,36.84-6.09,51.18-19.72,4.11,2.4,2.43,6.49,2.93,9.94-7.88,6.59-18.28,6.9-27.19,10.92-12.06,3.86-24.34,6.52-37.06,6.86l-15.8-1.62Z"/><path class="cls-7" d="M67.4,68.75,67,73.14c-7.46-6.42-17-11.41-16.34-23.47l.08-.08C59.56,53.14,64.32,60.21,67.4,68.75Z"/><path class="cls-8" d="M67.51,113.92c-.47,1.91-.94,3.82-1.43,5.74-6.92,4.3-14.32,5-24,3.42A76.55,76.55,0,0,1,67.51,113.92Z"/><path class="cls-7" d="M50.64,49.67c-2.43-.45-5.3-.4-5.06-4.09a1.53,1.53,0,0,1,1.05-1c3.69-.25,3.62,2.64,4.09,5.05Z"/><path class="cls-8" d="M121.46,181.87c8.91-4,19.31-4.33,27.19-10.92,17,.58,23.24,16.23,34,25.16,19.43,16.09,18.61,18.1-5.53,29.15-9.17,4.19-18.29,8.63-28.52,9.77-4.42-4.9-10.32-2.62-15.63-3.23-3.64-.42-8.3,1.26-10.14-3.46-2-5.13,2.66-6.56,5.81-8.45,10.82-6.5,7.51-15.64.41-19.91C120.73,195,122,188.7,121.46,181.87Z"/><text class="cls-9" transform="translate(173.35 117.94)">IR.<tspan class="cls-10"><tspan x="0" y="59.54">UX|UI</tspan></tspan></text></g></g></svg>