<svg xmlns="http://www.w3.org/2000/svg" viewBox="0 0 254 234.42"><defs><style>.cls-1{fill:#f2b394;}.cls-2{fill:#ac5a43;}.cls-3,.cls-4{fill:none;}.cls-3{stroke:#7aa394;stroke-miterlimit:10;stroke-width:9px;}</style></defs><g id="Layer_2" data-name="Layer 2"><g id="Layer_1-2" data-name="Layer 1"><path class="cls-1" d="M244,58.12c1.11,1,2.19,2,3.27,3V206.33l-3.27-.81v9.68c-6.07,3.41-12.48,6.8-19.12,10.3l-7.09,3.74H57.64c-11.23-17.3-16.92-39.15-12.51-59.65,2.69-12.47,9-21.23,51.75-52.82.75-.55,1.51-1.1,2.27-1.67q7-5.17,15.38-11.19c78-56.2,94.45-61,110.76-56.26A48.5,48.5,0,0,1,244,58.12Z"/><path class="cls-1" d="M254,208.86l-.73.45-2.73-.67V208C251.69,208.32,252.85,208.59,254,208.86Z"/><path class="cls-2" d="M247.28,154.35v51.52l-3.27-.82v24.52h-3.66v-.18h-143c0-.2,0-.41,0-.61-.08-2.64-.14-5.35-.2-8.15-.28-13.07-1.1-51.39,16.68-74.31q.19-.27.42-.54a48.78,48.78,0,0,1,3.84-4.29c18-17.84,41.91-12.3,70.62-5.65,16,3.7,36.58,8.33,55.34,17C245.11,153.3,246.2,153.82,247.28,154.35Z"/><path class="cls-3" d="M245.41,41.52V228.69l-3.27-.82c-6.45-1.65-13.1-3.52-20-5.45-33.5-9.43-83-22.87-110.24-53.28q-1.47-1.62-2.84-3.32A74.65,74.65,0,0,1,95,139.13q-.54-1.89-1-3.84c-.36-1.58-.68-3.19-.94-4.83-5-31.26,6.07-69.78,31.47-89.73,11.92-9.36,24.08-11.35,97.61-2.23q10.62,1.3,20,2.57Z"/><rect class="cls-4" width="244.01" height="229.57"/></g></g></svg>