<svg xmlns="http://www.w3.org/2000/svg" viewBox="0 0 164.96 159.55"><defs><style>.cls-1,.cls-6{fill:none;}.cls-1,.cls-2,.cls-3,.cls-4,.cls-5,.cls-6,.cls-7{stroke:#000;stroke-miterlimit:10;}.cls-1,.cls-2,.cls-3,.cls-5,.cls-7{stroke-width:3px;}.cls-2{fill:#4f6858;}.cls-3,.cls-4{fill:#7aa394;}.cls-4,.cls-6{stroke-width:1.5px;}.cls-5{fill:#ac5a43;}.cls-7{fill:#f2b394;}</style></defs><g id="Layer_2" data-name="Layer 2"><g id="Layer_1-2" data-name="Layer 1"><path class="cls-1" d="M125.19,124.78c-4.8,17.68-20.45,31.1-39.67,33.21,40.7-1.45,73.72-31.92,77.55-70.64C160.07,106.37,144.73,121.47,125.19,124.78ZM82.48,1.5c-44.72,0-81,35.05-81,78.28,0,38.79,29.2,71,67.51,77.19-16.87-4-30.11-17-34.08-33.36-19.24-5.5-33.27-22.72-33.27-43.1S15.63,43,34.81,37.44C39.41,17.3,58,2.23,80.21,2.23c21.79,0,40.08,14.48,45.12,34,20.17,3.48,35.84,19.52,38,39.46C161.17,34.38,125.79,1.5,82.48,1.5Z"/><path class="cls-2" d="M126.72,47.18a44.19,44.19,0,0,1-15,33.08,46.77,46.77,0,0,0-18.28-10A44.49,44.49,0,0,0,82.64,50.34,47.12,47.12,0,0,0,48.16,35.56a48.11,48.11,0,0,0-13.35,1.88C39.41,17.3,58,2.23,80.21,2.23c21.79,0,40.08,14.48,45.12,34A43.23,43.23,0,0,1,126.72,47.18Z"/><path class="cls-3" d="M163.46,79.78a72.86,72.86,0,0,1-.37,7.42.77.77,0,0,1,0,.15c-3,19-18.34,34.12-37.88,37.43a47.71,47.71,0,0,1-8.08.68,47.09,47.09,0,0,1-34.47-14.79A44.34,44.34,0,0,0,93.56,90.25a47,47,0,0,0,18.15-10,44.19,44.19,0,0,0,15-33.08,43.23,43.23,0,0,0-1.39-10.92c20.17,3.48,35.84,19.52,38,39.46v0C163.42,77.09,163.46,78.43,163.46,79.78Z"/><path class="cls-4" d="M163.09,87.2a72.86,72.86,0,0,0,.37-7.42c0-1.35,0-2.69-.11-4a44.09,44.09,0,0,1,.26,4.76A42.23,42.23,0,0,1,163.09,87.2Z"/><path class="cls-5" d="M82.64,50.34A44.42,44.42,0,0,0,72.13,69.06a46.9,46.9,0,0,0-23.41,11.2,44.15,44.15,0,0,0-15,33.07,43.57,43.57,0,0,0,1.22,10.28c-19.24-5.5-33.27-22.72-33.27-43.1S15.63,43,34.81,37.44a48.11,48.11,0,0,1,13.35-1.88A47.12,47.12,0,0,1,82.64,50.34Z"/><path class="cls-6" d="M111.71,80.26a47,47,0,0,1-18.15,10,44.34,44.34,0,0,1-10.92,20.42A44.23,44.23,0,0,1,72,91.43,47,47,0,0,1,48.72,80.26a46.9,46.9,0,0,1,23.41-11.2A44.42,44.42,0,0,1,82.64,50.34,44.49,44.49,0,0,1,93.43,70.22,46.77,46.77,0,0,1,111.71,80.26Z"/><path class="cls-7" d="M125.19,124.78c-4.8,17.68-20.45,31.1-39.67,33.21-1,0-2,.06-3,.06A84.14,84.14,0,0,1,69,157c-16.87-4-30.11-17-34.08-33.36a43.57,43.57,0,0,1-1.22-10.28,44.15,44.15,0,0,1,15-33.07A47,47,0,0,0,72,91.43a44.23,44.23,0,0,0,10.65,19.24,47.09,47.09,0,0,0,34.47,14.79A47.71,47.71,0,0,0,125.19,124.78Z"/></g></g></svg>