<svg xmlns="http://www.w3.org/2000/svg" viewBox="0 0 166.84 231.07"><defs><style>.cls-1{fill:none;stroke:#000;stroke-miterlimit:10;stroke-width:5px;}</style></defs><g id="Layer_2" data-name="Layer 2"><g id="Layer_1-2" data-name="Layer 1"><path class="cls-1" d="M151.48,122.88c-8.09,66.57-4.11,92.24-23.14,103.29-6.53,3.78-20.6,2.57-48.47,0-42.18-3.9-63.43-6-71-14.18-12.48-13.42-4-30.07,4.05-89.26,10.67-78,3.59-104.35,24-117,6.54-4.06,22.77-3.54,55-2.32,38.76,1.47,58.28,2.33,65.1,8.68C172.16,26.19,160.56,48.19,151.48,122.88Z"/><path class="cls-1" d="M138.22,108.2c-6.8,50.33-3.45,69.75-19.45,78.1-5.48,2.86-17.3,1.95-40.72,0-35.45-3-53.3-4.55-59.69-10.72C7.88,165.44,15,152.84,21.77,108.09c9-59,3-78.9,20.18-88.49,5.49-3.07,19.13-2.67,46.19-1.75,32.57,1.11,49,1.76,54.7,6.56C155.6,35.1,145.85,51.73,138.22,108.2Z"/><ellipse class="cls-1" cx="69.89" cy="206.2" rx="18.81" ry="12.73"/></g></g></svg>