<svg xmlns="http://www.w3.org/2000/svg" viewBox="0 0 1751.79 770.9"><defs><style>.cls-1{fill:#7aa394;}.cls-2{fill:#ac5a43;}.cls-3{fill:#f2b394;}.cls-4{fill:#4f6858;}.cls-5,.cls-6{font-size:36px;font-family:CenturyGothic, Century Gothic;}.cls-6{fill:#fafcfb;}</style></defs><g id="Layer_2" data-name="Layer 2"><g id="Layer_1-2" data-name="Layer 1"><path class="cls-1" d="M286.22,122.28c-1.12,17.82-4.55,72.63-39.15,98.29-28.14,20.87-62.19,11.55-103.12.34C94.12,207.27,12.21,185.79,1.68,122.28-3.88,88.76,8.38,47.43,36.37,26,49.51,16,62.91,13.87,144,23.64c107.57,13,124.9,22,135,39.39C288.85,80.23,287.69,98.75,286.22,122.28Z"/><path class="cls-2" d="M1135.83,117.21c-.15-17.86-.6-72.79,32.09-101.21,26.59-23.11,61.2-16.6,102.8-8.77,50.65,9.53,133.84,24.26,148.82,86.72,7.91,33-1.39,75.18-27.8,98.8-12.39,11.08-25.6,14.3-107.09,11.18-108.18-4.14-126.1-11.75-137.34-28.24C1136.17,159.35,1136,140.79,1135.83,117.21Z"/><path class="cls-3" d="M781.83,207.68c10.31,14,42,57.06,32.41,101.09-7.81,35.81-38.84,53.53-76.15,74.83-45.41,25.94-119.48,69.27-167,29.86-25-20.8-41.79-60.26-34.42-96.35,3.46-16.93,12-28.2,78.16-79.58,87.76-68.19,106.24-74,124.52-68.43C757.52,174.64,768.23,189.19,781.83,207.68Z"/><path class="cls-4" d="M1243.23,559.13c6.52,43.6-9.58,96.57-40.11,112.65-18.75,9.87-32.82.49-96.75-30.45-110.63-53.54-129.69-55.05-136.86-82.2-9.59-36.31,11-84.8,39.47-104.28,10.77-7.36,18.67-7.85,111.39,7.61,57.14,9.52,70.31,12.4,85.94,26.64A119.6,119.6,0,0,1,1243.23,559.13Z"/><path d="M311.27,593.32c-6.52,37.18-76.65,56.57-124,58-2.06.06-6.1,0-12.45,0-40.7-.5-159.44-5.94-173.55-60-11.95-45.75,62.71-125.29,134-126,31.82-.32,62,15.15,93,31,32.79,16.79,46.86,31.16,53,38C296.57,551.38,315,571.94,311.27,593.32Z"/><text class="cls-5" transform="translate(40.48 86.11)">#7AA394</text><text class="cls-5" transform="translate(302.8 75.92)">R:122<tspan x="0" y="43.2">G:163</tspan><tspan x="0" y="86.4">B: 148</tspan></text><text class="cls-5" transform="translate(427.5 75.92)">C:156<tspan x="0" y="43.2">M: 23</tspan><tspan x="0" y="86.4">Y: 45</tspan><tspan x="0" y="129.6">K: 1</tspan></text><text class="cls-5" transform="translate(842.15 227.92)">R: 242<tspan x="0" y="43.2">G:179</tspan><tspan x="0" y="86.4">B: 148</tspan></text><text class="cls-5" transform="translate(966.85 227.92)">C: 3 <tspan x="0" y="43.2">M: 34</tspan><tspan x="0" y="86.4">Y: 40</tspan><tspan x="0" y="129.6">K: 0</tspan></text><text class="cls-5" transform="translate(352.15 558.92)">R:0<tspan x="0" y="43.2">G: 0</tspan><tspan x="0" y="86.4">B: 0</tspan></text><text class="cls-5" transform="translate(476.85 558.92)">C: 75<tspan x="0" y="43.2">M: 68</tspan><tspan x="0" y="86.4">Y: 67</tspan><tspan x="0" y="129.6">K: 90</tspan></text><text class="cls-5" transform="translate(1262.15 545.92)">R:79<tspan x="0" y="43.2">G: 104</tspan><tspan x="0" y="86.4">B: 88</tspan></text><text class="cls-5" transform="translate(1386.85 545.92)">C:69<tspan x="0" y="43.2">M: 43</tspan><tspan x="0" y="86.4">Y: 64</tspan><tspan x="0" y="129.6">K: 24</tspan></text><text class="cls-5" transform="translate(1439.15 95.92)">R: 172<tspan x="0" y="43.2">G:90</tspan><tspan x="0" y="86.4">B: 67</tspan></text><text class="cls-5" transform="translate(1573.85 98.92)">C: 25<tspan x="0" y="43.2">M: 72</tspan><tspan x="0" y="86.4">Y: 77</tspan><tspan x="0" y="129.6">K: 13</tspan></text><text class="cls-6" transform="translate(80.31 532.89)">#0</text><text class="cls-5" transform="translate(591.31 298.89)">#F2B394</text><text class="cls-5" transform="translate(1179.31 87.89)">#AC5A43</text><text class="cls-5" transform="translate(1020.31 533.89)">#4F6858</text></g></g></svg>