<svg xmlns="http://www.w3.org/2000/svg" viewBox="0 0 1290.92 539.93"><defs><style>.cls-1{fill:none;stroke:#f2b394;stroke-width:15px;}.cls-1,.cls-6{stroke-miterlimit:10;}.cls-2,.cls-4{font-size:38.18px;}.cls-2{font-family:CenturyGothic-Bold, Century Gothic;font-weight:700;}.cls-3{font-family:CenturyGothic, Century Gothic;font-weight:400;}.cls-4,.cls-5{font-family:BookAntiqua, Book Antiqua;}.cls-5{font-size:25.7px;letter-spacing:0.2em;}.cls-6{fill:#f2b394;stroke:#000;stroke-width:1.5px;}</style></defs><g id="Layer_2" data-name="Layer 2"><g id="Layer_1-2" data-name="Layer 1"><text/><path class="cls-1" d="M6.1,189.11c11.83-16.57,36.83-46.41,78.52-62.82,25-9.82,53.2-13.74,99.21-7.85,84.67,10.85,100.91,38.45,196.29,67.81,55.27,17,111.3,33.62,181.29,23.55,47.23-6.79,81.43-22.94,109.92-36.4,67-31.62,73.37-52.46,159.17-104.92,61.16-37.39,91.74-56.09,128.48-60,74.29-7.82,138,31.35,157,44.26,43.77,29.62,53.67,56.92,115.63,94.21A430.74,430.74,0,0,0,1288,175.54"/><text class="cls-2" transform="translate(42.59 298.78)">TITLE<tspan class="cls-3"><tspan x="0" y="91.64">century gothic (bold, regular)</tspan></tspan><tspan x="0" y="183.29">abcdefghijklmnopqrstuvwxyz</tspan><tspan class="cls-3"><tspan x="0" y="229.11">1234567890</tspan></tspan></text><text/><text class="cls-4" transform="translate(680.35 482.23)">abcdefghijklmnopqrstuvwxyz<tspan x="0" y="45.82">1234567890</tspan></text><text class="cls-5" transform="translate(681.83 288.16)">Paragraph<tspan x="0" y="92.5">Book Antiqua (Regular)</tspan></text><path class="cls-6" d="M1165.35,38.62c.73,0,1.45,0,2.17,0a33.72,33.72,0,0,1-3.79.21,34.47,34.47,0,0,1-8-.94A59.63,59.63,0,0,0,1165.35,38.62Z"/></g></g></svg>